<?xml version="1.0" encoding="utf-8"?>
<!-- Generator: Adobe Illustrator 18.1.1, SVG Export Plug-In . SVG Version: 6.00 Build 0)  -->
<!DOCTYPE svg PUBLIC "-//W3C//DTD SVG 1.1//EN" "http://www.w3.org/Graphics/SVG/1.1/DTD/svg11.dtd">
<svg version="1.1" id="Warstwa_1" xmlns="http://www.w3.org/2000/svg" xmlns:xlink="http://www.w3.org/1999/xlink" x="0px" y="0px"
	 width="320px" height="568px" viewBox="136 -260 320 568" enable-background="new 136 -260 320 568" xml:space="preserve">
<path opacity="8.000000e-002" fill="#ED2E7A" enable-background="new    " d="M166.9-194.9l-2.4-3.2h1c0.1,0,0.1,0,0.2,0l0.1,0.1
	l1.9,2.7c0-0.1,0.1-0.1,0.1-0.2l1.8-2.4l0.1-0.1h0.1h0.9l-2.4,3.2l2.5,3.5h-1c-0.1,0-0.1,0-0.2-0.1l-0.1-0.1l-1.9-2.8
	c0,0.1-0.1,0.1-0.1,0.2l-1.9,2.6l-0.1,0.1c0,0-0.1,0.1-0.2,0.1h-0.9L166.9-194.9z"/>
<polygon opacity="8.000000e-002" fill="#ED2E7A" enable-background="new    " points="176.2,-198.2 176.2,-197.4 172.7,-197.4 
	172.7,-195.2 175.5,-195.2 175.5,-194.5 172.7,-194.5 172.7,-192.2 176.2,-192.2 176.2,-191.5 171.7,-191.5 171.7,-198.2 "/>
<path opacity="8.000000e-002" fill="#ED2E7A" enable-background="new    " d="M178.6-194.9h1c0.3,0,0.5,0,0.8-0.1
	c0.2-0.1,0.4-0.2,0.5-0.3s0.3-0.3,0.3-0.4c0.1-0.2,0.1-0.3,0.1-0.5c0-0.4-0.1-0.7-0.4-0.9c-0.3-0.2-0.7-0.3-1.3-0.3h-1.1
	L178.6-194.9L178.6-194.9L178.6-194.9z M178.6-194.3v2.8h-1v-6.7h2c0.5,0,0.8,0,1.2,0.1c0.3,0.1,0.6,0.2,0.8,0.4s0.4,0.4,0.5,0.6
	s0.2,0.5,0.2,0.8c0,0.2,0,0.5-0.1,0.7s-0.2,0.4-0.3,0.6c-0.2,0.2-0.3,0.3-0.6,0.4c-0.2,0.1-0.5,0.2-0.7,0.3c0.1,0.1,0.2,0.2,0.3,0.3
	l2.1,2.7h-0.9c-0.2,0-0.3-0.1-0.4-0.2l-1.9-2.4c-0.1-0.1-0.1-0.1-0.2-0.2c-0.1,0-0.2,0-0.3,0h-0.7L178.6-194.3L178.6-194.3z"/>
<path opacity="8.000000e-002" fill="#ED2E7A" enable-background="new    " d="M189.5-194.8c0-0.4-0.1-0.8-0.2-1.1
	c-0.1-0.3-0.3-0.6-0.5-0.8s-0.5-0.4-0.8-0.5s-0.7-0.2-1.1-0.2c-0.4,0-0.7,0.1-1.1,0.2c-0.3,0.1-0.6,0.3-0.8,0.5s-0.4,0.5-0.5,0.8
	s-0.2,0.7-0.2,1.1s0.1,0.8,0.2,1.1c0.1,0.3,0.3,0.6,0.5,0.8s0.5,0.4,0.8,0.5s0.7,0.2,1.1,0.2c0.4,0,0.7-0.1,1.1-0.2
	c0.3-0.1,0.6-0.3,0.8-0.5s0.4-0.5,0.5-0.8C189.4-194,189.5-194.4,189.5-194.8 M190.5-194.8c0,0.5-0.1,1-0.3,1.4s-0.4,0.8-0.7,1.1
	s-0.7,0.5-1.1,0.7c-0.4,0.2-0.9,0.2-1.4,0.2s-1-0.1-1.4-0.2c-0.4-0.2-0.8-0.4-1.1-0.7s-0.6-0.7-0.7-1.1c-0.2-0.4-0.3-0.9-0.3-1.4
	s0.1-1,0.3-1.4s0.4-0.8,0.7-1.1s0.7-0.5,1.1-0.7s0.9-0.3,1.4-0.3s1,0.1,1.4,0.3s0.8,0.4,1.1,0.7s0.6,0.7,0.7,1.1
	C190.4-195.8,190.5-195.3,190.5-194.8"/>
<path opacity="8.000000e-002" fill="#ED2E7A" enable-background="new    " d="M193.4-194.9l-2.4-3.2h1c0.1,0,0.1,0,0.2,0l0.1,0.1
	l1.9,2.7c0-0.1,0.1-0.1,0.1-0.2l1.8-2.4l0.1-0.1h0.1h0.8l-2.4,3.2l2.5,3.5h-1c-0.1,0-0.1,0-0.2-0.1l-0.1-0.1l-1.9-2.8
	c0,0.1-0.1,0.1-0.1,0.2l-1.8,2.4l-0.1,0.1c0,0-0.1,0.1-0.2,0.1h-0.9L193.4-194.9z"/>
<path opacity="0.16" fill="#ED2E7A" enable-background="new    " d="M456.2,116.5L456.2,116.5c0.2,0,0.3,0,0.4,0l-0.3,0.2
	L456.2,116.5z"/>
<path opacity="0.16" fill="#ED2E7A" enable-background="new    " d="M234.8,16.8c0.7-0.1,3-0.4,5.4-0.7l-6-3.5l-4.9,0.6
	c-1.6,0-2.8,1.1-2.9,2.6l6.1,2.7C232.7,18,233.3,17,234.8,16.8"/>
<path opacity="0.16" fill="#ED2E7A" enable-background="new    " d="M255.8,25l-8.1-9.7c-0.8,0.1-11.2,1.5-12.9,1.7
	c-1.4,0.2-2,1.2-2.2,1.5l8.8,11.4l14.8-2.8v-0.8C256.2,25.9,256.1,25.4,255.8,25"/>
<path opacity="0.16" fill="#ED2E7A" enable-background="new    " d="M247.1,14.8l-4.9-2.7c-0.3-0.2-0.6-0.4-1-0.4l-6.6,0.8l6,3.5
	c3-0.4,6.2-0.8,7-0.9C247.5,15,247.2,14.8,247.1,14.8"/>
<path opacity="0.16" fill="#ED2E7A" enable-background="new    " d="M240.6,16L240.6,16c-0.1,0-0.3,0-0.4,0l0.3,0.2L240.6,16z"/>
<path opacity="8.000000e-002" fill="#219E97" enable-background="new    " d="M149.3,93.5h7.7v1h5.7v-1h6.9v-0.7h-6.9V92H157v0.7
	h-7.7V93.5z M144.8,89.2c0-1.3,1.1-2.4,2.4-2.4h24.6c1.3,0,2.4,1.1,2.4,2.4v7.6c0,1.3-1.1,2.4-2.4,2.4h-24.6c-1.3,0-2.4-1.1-2.4-2.4
	V89.2z"/>
<path opacity="8.000000e-002" fill="#219E97" enable-background="new    " d="M-176.2,328.5c-0.2,0-0.5,0-0.7,0
	c-0.1,0-0.2,0-0.2-0.1c0-0.2-0.1-0.3,0.1-0.5c0-0.1,0-0.1,0-0.2c0.1,0,0.2,0,0.2,0.1c0.3,0.2,0.6,0.3,0.8,0.5c0.1,0,0.2,0.1,0.1,0.1
	C-175.9,328.5-176.1,328.5-176.2,328.5"/>
<path opacity="8.000000e-002" fill="#219E97" enable-background="new    " d="M-157.4,328.2c0,0,0-0.2,0-0.3s0-0.1,0.1-0.2
	c0.4,0.2,0.8,0.4,1.3,0.7c-0.2,0-0.6,0.1-0.7,0.1C-157.4,328.5-157.4,328.5-157.4,328.2"/>
<path opacity="8.000000e-002" fill="#219E97" enable-background="new    " d="M-178.4,333.9C-178.5,333.9-178.5,333.9-178.4,333.9
	c0-0.2,0-0.3,0.1-0.5l0,0c0.2,0.1,0.3,0.1,0.5,0.1s0.4-0.1,0.5-0.2c0.2-0.2,0.3-0.5,0.1-0.7c-0.1-0.2-0.5-0.3-1-0.2l0,0
	c0-0.2,0.1-0.3,0.1-0.5l0,0c0.2,0,0.4-0.1,0.6,0c0.8,0.1,1.2,0.7,0.9,1.3C-176.8,333.7-177.7,334.1-178.4,333.9"/>
<path opacity="8.000000e-002" fill="#219E97" enable-background="new    " d="M-178.5,332.9c0,0.1,0,0.2-0.1,0.5h-0.8l0.6-0.5
	H-178.5z"/>
<path opacity="8.000000e-002" fill="#219E97" enable-background="new    " d="M-178.8,332.8l-0.4-0.5h0.8c0,0-0.1,0.4-0.1,0.5
	C-178.6,332.8-178.7,332.8-178.8,332.8"/>
<path opacity="8.000000e-002" fill="#219E97" enable-background="new    " d="M386.3-126c-0.3,0-0.7,0-1,0c-0.1,0-0.3,0-0.3-0.1
	c0-0.2-0.1-0.4,0.1-0.6c0-0.1,0-0.1,0-0.2c0.2,0,0.2,0.1,0.3,0.1c0.4,0.2,0.8,0.4,1.1,0.6c0.1,0.1,0.3,0.1,0.2,0.2
	C386.7-126,386.5-126,386.3-126"/>
<path opacity="8.000000e-002" fill="#219E97" enable-background="new    " d="M412.3-126.5c0-0.1,0-0.3,0-0.4s0-0.2,0.1-0.2
	c0.6,0.3,1.2,0.6,1.8,0.9c-0.3,0-0.9,0.1-1,0.1C412.3-126.1,412.3-126.1,412.3-126.5"/>
<path opacity="8.000000e-002" fill="#219E97" enable-background="new    " d="M383.2-118.6L383.2-118.6c0-0.3,0-0.5,0.1-0.7l0,0
	c0.2,0.1,0.5,0.1,0.7,0.1c0.3,0,0.5-0.1,0.7-0.3c0.3-0.3,0.4-0.6,0.2-0.9c-0.2-0.3-0.7-0.4-1.4-0.2l0,0c0-0.2,0.1-0.4,0.1-0.7
	c0,0,0,0,0.1,0c0.3-0.1,0.6-0.1,0.8,0c1.1,0.1,1.7,0.9,1.3,1.8C385.4-118.8,384.2-118.3,383.2-118.6"/>
<path opacity="8.000000e-002" fill="#219E97" enable-background="new    " d="M383.1-120c0,0.2-0.1,0.3-0.2,0.7h-1.1l0.8-0.7H383.1z
	"/>
<path opacity="8.000000e-002" fill="#219E97" enable-background="new    " d="M382.7-120l-0.5-0.7h1.1c0,0-0.1,0.5-0.1,0.7
	C382.9-120,382.8-120,382.7-120"/>
<path opacity="8.000000e-002" fill="#219E97" enable-background="new    " d="M311.7-97.9c0.1,0,0.2-0.3,0.3-0.5l5.7-5.9l5.6-5.1
	c0.3-0.3,0.7-0.5,1.1-0.4l9.8,0.2c0.1-0.3,0.2-0.6,0.3-0.9c1.2-3.4,3.8-10.5,19.6-10.5c0.4,0,0.8,0,1.2,0v1.7
	c-15.7-0.3-18,6.2-19.1,9.3c0,0.1-0.1,0.3-0.1,0.4l6.4,0.1c0.6,0,1.1,0.4,1.3,1v-0.1v0.6v0.3l-6.3,7.6c0,0-4.1,4.4-5.8,4.9
	c-1.7,0.5-5.9,0.4-5.9,0.4l-14.2-0.4v0.2L311.7-97.9L311.7-97.9z"/>
<path opacity="8.000000e-002" fill="#219E97" enable-background="new    " d="M326.9-94.4c1.4,0,3.8-0.1,5-0.4c1.7-0.5,5.8-4.8,6-5
	l6-7.3v1.7v0.4l-0.1,0.2c0,0.1,0,0.1-0.1,0.2l-8.8,14.3c-0.3,0.4-0.8,0.7-1.3,0.7l-18-0.3c-0.6,0-1.1-0.3-1.3-0.9l-0.9-2h-0.3
	c-0.8,0-1.5-0.8-1.5-1.6v-0.5l14.2,0.4C325.9-94.4,326.3-94.4,326.9-94.4"/>
<path opacity="0.16" fill="#219E97" enable-background="new    " d="M388-45.5c-0.3,0-0.7,0-1,0c-0.1,0-0.3,0-0.3-0.1
	c0-0.2-0.1-0.4,0.1-0.6c0-0.1,0-0.1,0-0.2c0.2,0,0.2,0.1,0.3,0.1c0.4,0.2,0.8,0.4,1.1,0.6c0.1,0.1,0.3,0.1,0.2,0.2
	C388.4-45.5,388.2-45.5,388-45.5"/>
<path opacity="0.16" fill="#219E97" enable-background="new    " d="M414.1-45.9c0-0.1,0-0.3,0-0.4s0-0.2,0.1-0.2
	c0.6,0.3,1.2,0.6,1.8,0.9c-0.3,0-0.9,0.1-1,0.1C414-45.6,414-45.5,414.1-45.9"/>
<path opacity="0.16" fill="#219E97" enable-background="new    " d="M384.9-38C384.9-38,384.9-38.1,384.9-38c0-0.3,0-0.5,0.1-0.7
	l0,0c0.2,0.1,0.5,0.1,0.7,0.1c0.3,0,0.5-0.1,0.7-0.3c0.3-0.3,0.4-0.6,0.2-0.9c-0.2-0.3-0.7-0.4-1.4-0.2l0,0c0-0.2,0.1-0.4,0.1-0.7
	c0,0,0,0,0.1,0c0.3-0.1,0.6-0.1,0.8,0c1.1,0.1,1.7,0.9,1.3,1.8C387.1-38.3,385.9-37.8,384.9-38"/>
<path opacity="0.16" fill="#219E97" enable-background="new    " d="M384.8-39.5c0,0.2-0.1,0.3-0.2,0.7h-1.1l0.8-0.7H384.8z"/>
<path opacity="0.16" fill="#219E97" enable-background="new    " d="M384.4-39.5l-0.5-0.7h1.1c0,0-0.1,0.5-0.1,0.7
	C384.7-39.5,384.6-39.5,384.4-39.5"/>
<path opacity="0.16" fill="#219E97" enable-background="new    " d="M334-14.4c0.1,0,0.2-0.3,0.3-0.5l5.7-5.9l5.6-5.1
	c0.3-0.3,0.7-0.5,1.1-0.4l9.8,0.2c0.1-0.3,0.2-0.6,0.3-0.9c1.2-3.4,3.8-10.5,19.6-10.5c0.4,0,0.8,0,1.2,0v1.7
	c-15.7-0.3-18,6.2-19.1,9.3c0,0.1-0.1,0.3-0.1,0.4l6.4,0.1c0.6,0,1.1,0.4,1.3,1v-0.1v0.6v0.3l-6.3,7.6c0,0-4.1,4.4-5.8,4.9
	c-1.7,0.5-5.9,0.4-5.9,0.4l-14.2-0.4v0.2L334-14.4L334-14.4z"/>
<path opacity="0.16" fill="#219E97" enable-background="new    " d="M349.2-10.9c1.4,0,3.8-0.1,5-0.4c1.7-0.5,5.8-4.8,6-5l6-7.3v1.7
	v0.4l-0.1,0.2c0,0.1,0,0.1-0.1,0.2l-8.8,14.3c-0.3,0.4-0.8,0.7-1.3,0.7l-18-0.3c-0.6,0-1.1-0.3-1.3-0.9l-0.9-2h-0.3
	c-0.8,0-1.5-0.8-1.5-1.6v-0.5l14.2,0.4C348.2-11,348.6-10.9,349.2-10.9"/>
<path opacity="0.16" fill="#219E97" enable-background="new    " d="M214.5-107.8c0.3,0,0.6,0,1,0c0.1,0,0.3,0,0.3-0.1
	c0-0.2,0.1-0.4-0.1-0.6c0-0.1,0-0.1,0-0.2c-0.2,0-0.2,0-0.3,0.1c-0.4,0.2-0.7,0.4-1.1,0.6c-0.1,0.1-0.3,0.1-0.2,0.2
	C214.1-107.8,214.3-107.8,214.5-107.8"/>
<path opacity="0.16" fill="#219E97" enable-background="new    " d="M189.5-108.2c0-0.1,0-0.3,0-0.4s0-0.1-0.1-0.2
	c-0.6,0.3-1.1,0.5-1.7,0.9c0.3,0,0.8,0.1,0.9,0.1C189.5-107.9,189.5-107.8,189.5-108.2"/>
<path opacity="0.16" fill="#219E97" enable-background="new    " d="M217.5-100.6C217.5-100.6,217.5-100.7,217.5-100.6
	c0-0.3,0-0.5-0.1-0.7l0,0c-0.2,0.1-0.5,0.1-0.7,0.1c-0.3,0-0.5-0.1-0.7-0.3c-0.3-0.3-0.4-0.6-0.2-0.9c0.2-0.2,0.7-0.4,1.3-0.2l0,0
	c0-0.2-0.1-0.4-0.1-0.6c0,0,0,0-0.1,0c-0.3-0.1-0.5-0.1-0.8,0c-1.1,0.1-1.6,0.9-1.2,1.7C215.3-100.9,216.5-100.4,217.5-100.6"/>
<path opacity="0.16" fill="#219E97" enable-background="new    " d="M217.6-102c0,0.2,0.1,0.3,0.2,0.7h1.1l-0.8-0.7H217.6z"/>
<path opacity="0.16" fill="#219E97" enable-background="new    " d="M218-102l0.5-0.6h-1.1c0,0,0.1,0.5,0.1,0.6
	C217.7-102,217.8-102,218-102"/>
<path opacity="0.1" fill="#ED2E7A" enable-background="new    " d="M371.2,135.2c-0.1-0.1-0.1-0.1-0.2-0.2c-0.1-0.1-0.3-0.1-0.4-0.2
	c-0.1-0.1-0.2-0.2-0.1-0.3c0-0.1,0.2-0.3,0.3-0.3c0.2,0,0.3,0,0.5,0L371.2,135.2L371.2,135.2z M372,137.2c0-1.1,0-2.2,0-3.3
	c0-0.2-0.2-0.5-0.5-0.5s-0.6,0-0.9,0s-0.6,0.2-0.8,0.4c-0.1,0.2-0.2,0.4-0.2,0.6s0.1,0.5,0.2,0.6s0.3,0.2,0.4,0.3c0,0,0,0,0.1,0
	c-0.1,0.2-0.2,0.4-0.3,0.5c-0.2,0.4-0.4,0.7-0.6,1.1l0,0h1c0.1-0.1,0.1-0.3,0.2-0.4c0.2-0.4,0.5-0.9,0.7-1.3v1.7h0.7
	C372,136.9,372,137.2,372,137.2z"/>
<path opacity="0.1" fill="#ED2E7A" enable-background="new    " d="M373.4,135.7c0.1-0.5,0.2-1,0.3-1.5l0,0c0.1,0.5,0.2,1,0.3,1.5
	H373.4z M375.3,137.2c0-0.1,0-0.2-0.1-0.3c-0.2-0.5-0.3-1.1-0.5-1.6s-0.3-1-0.5-1.5c-0.1-0.2-0.2-0.3-0.4-0.4
	c-0.2-0.1-0.5,0-0.7,0.2c-0.1,0.2-0.2,0.5-0.3,0.7c-0.1,0.3-0.2,0.6-0.3,1c-0.2,0.6-0.4,1.2-0.6,1.8v0.1h0.8
	c0.1-0.2,0.1-0.5,0.2-0.7c0.3,0,0.7,0,1,0h0.1c0.1,0.2,0.1,0.4,0.2,0.7H375.3L375.3,137.2z"/>
<path opacity="0.1" fill="#ED2E7A" enable-background="new    " d="M378.1,135.7c0.1-0.5,0.2-1,0.3-1.5l0,0c0.1,0.5,0.2,1,0.3,1.5
	H378.1z M380,137.1c-0.1-0.3-0.2-0.5-0.2-0.8c-0.1-0.3-0.2-0.6-0.3-0.9c-0.2-0.5-0.3-1.1-0.5-1.6c-0.1-0.2-0.2-0.3-0.4-0.4
	s-0.5,0-0.6,0.2s-0.2,0.5-0.3,0.7c-0.1,0.3-0.2,0.6-0.3,1c-0.2,0.6-0.4,1.2-0.6,1.8v0.1h0.8c0.1-0.2,0.1-0.5,0.2-0.7
	c0.3,0,0.7,0,1,0h0.1c0.1,0.2,0.1,0.5,0.2,0.7L380,137.1L380,137.1z"/>
<polygon opacity="0.1" fill="#ED2E7A" enable-background="new    " points="376.5,137.2 376.5,134.1 377.2,134.1 377.2,133.4 
	375,133.4 375,134.1 375.7,134.1 375.7,137.2 "/>
<rect x="368.4" y="133.4" opacity="0.1" fill="#ED2E7A" enable-background="new    " width="0.8" height="3.7"/>
<path opacity="0.1" fill="#ED2E7A" enable-background="new    " d="M383.6,133.5c0,0.5,0,1,0,1.6c0,0.2,0,0.4,0.1,0.5
	c0,0.2,0.1,0.4,0.2,0.5c0.1,0.2,0.2,0.3,0.3,0.4c0.2,0.2,0.4,0.3,0.6,0.4c0.2,0.1,0.3,0.1,0.5,0.1c0.1,0,0.2,0,0.3,0v-0.5
	c-0.1,0-0.3-0.1-0.4-0.1s-0.2-0.1-0.3-0.2c-0.1-0.1-0.2-0.1-0.3-0.2c-0.1-0.1-0.2-0.2-0.3-0.3c-0.1-0.1-0.2-0.3-0.2-0.4
	s-0.1-0.2-0.1-0.4c0-0.1,0-0.2,0-0.3s0-0.1,0-0.2c0-0.3,0-0.7,0-1L383.6,133.5L383.6,133.5z"/>
<path opacity="0.1" fill="#ED2E7A" enable-background="new    " d="M382.5,133.5c0,0.4,0,0.7,0,1.1c0,0.1,0,0.3,0,0.4
	c0,0.2-0.1,0.3-0.2,0.5s-0.2,0.3-0.3,0.5c-0.1,0.1-0.2,0.2-0.3,0.3c-0.2,0.1-0.3,0.2-0.5,0.3c-0.1,0-0.2,0-0.3,0.1v0.5
	c0.3,0,0.5,0,0.8-0.2c0.1-0.1,0.3-0.1,0.4-0.2c0.2-0.1,0.3-0.3,0.5-0.5c0.1-0.2,0.2-0.3,0.2-0.5c0-0.1,0.1-0.2,0.1-0.3s0-0.1,0-0.2
	c0-0.6,0-1.1,0-1.7L382.5,133.5L382.5,133.5z"/>
<rect x="383" y="133.5" opacity="0.1" fill="#ED2E7A" enable-background="new    " width="0.5" height="3.6"/>
<path opacity="0.1" fill="#ED2E7A" enable-background="new    " d="M456.7,196H201.1c-2,0-3.7-1.7-3.9-3.3h263.9
	C460.8,194.3,458.8,196,456.7,196"/>
<path opacity="0.1" fill="#ED2E7A" enable-background="new    " d="M162.2,174.2c-1.3-0.2-5.5-0.8-10.1-1.4l11.3-6.5l9.2,1.1
	c2.9,0,5.3,2.1,5.4,4.8l-11.4,5C166.2,176.4,164.9,174.7,162.2,174.2"/>
<path opacity="0.1" fill="#ED2E7A" enable-background="new    " d="M139.2,170.4l9.2-5c0.6-0.4,1.2-0.8,1.9-0.7l12.3,1.5l-11.2,6.5
	c-5.6-0.7-11.6-1.5-13.1-1.7C138.5,170.8,138.9,170.5,139.2,170.4"/>
<path opacity="0.1" fill="#ED2E7A" enable-background="new    " d="M151.4,172.8L151.4,172.8c0.3,0,0.5,0,0.7,0.1l-0.5,0.3
	L151.4,172.8z"/>
<line display="none" fill="none" stroke="#FFFFFF" stroke-width="0.7506" stroke-miterlimit="10" stroke-dasharray="1.1365,7.0465" x1="187.8" y1="-93.7" x2="187.8" y2="-144"/>
<path opacity="0.64" fill="#ED2E7A" enable-background="new    " d="M365.6,53.5c0,0.5-0.4,1-0.9,1H165.6c-0.5,0-0.9-0.4-0.9-1V-77
	c0-0.5,0.4-1,0.9-1h199.1c0.5,0,0.9,0.4,0.9,1V53.5z M266.1,72.6c0-1,0.4-1.9,1-2.6c0.6-0.6,1.3-1,2.1-1.1c0.3,1.8-1.2,3.8-2.8,4
	C266.1,73,266.1,72.9,266.1,72.6 M268.1,73.2c1.7-0.7,3.3-0.2,4.4,1.4c-2.6,1.7-2.1,5.5,0.5,6.7c-0.7,1.5-1.4,2.9-2.6,4
	c-0.6,0.5-1.3,0.6-2,0.2c-1.2-0.6-2.4-0.6-3.6,0c-0.9,0.5-1.7,0.2-2.4-0.5c-1.2-1.3-2-2.8-2.5-4.5c-0.4-1.3-0.5-2.7-0.2-4
	c0.4-1.8,1.8-3.2,3.5-3.4c0.5-0.1,1.2,0.1,1.7,0.3C266.1,73.6,267,73.6,268.1,73.2 M263.7-87.6c0-0.1,0.1-0.2,0.2-0.2h3.1
	c0.1,0,0.2,0.1,0.2,0.2v3.3c0,0.1-0.1,0.2-0.2,0.2h-3.1c-0.1,0-0.2-0.1-0.2-0.2V-87.6z M367.3-91.5H162.7c-5.7,0-10.2,5.1-10.2,11.1
	V95.3c0,6.1,4.5,10.8,10.2,10.8h76.1c-0.1,4.3-0.2,8.8-1,12.2c-3.2,12.9-5.6,14-10,16.3c-1.8,0.9-3.9,2.2-6,2.7
	c-0.4,0.1-0.8,0.6-0.5,1v1.7c0,1,0.7,1.9,1.7,1.9c28.5,1.6,56.5,1.6,83.9,0c1,0,1.8-0.8,1.8-1.9v-1.8v-0.1V138h-0.1
	c-0.1-0.3-0.3-0.6-0.6-0.6c-2.1-0.6-4.2-1.7-6.1-2.7c-4.4-2.3-6.8-3.5-10-16.4c-0.8-3.4-0.9-7.9-1-12.2h76.3
	c5.7,0,10.5-4.8,10.5-10.8V-80.4C377.8-86.4,373.1-91.5,367.3-91.5"/>
<text transform="matrix(1 0 0 1 229.8051 -16.9014)" fill="#219E97" font-family="'OpenSans'" font-size="10.6379"> </text>
<text transform="matrix(1 0 0 1 327.8666 -16.9014)" fill="#219E97" font-family="'OpenSans-Light'" font-size="10.6379"> </text>
<text transform="matrix(1 0 0 1 520.6 -157.9277)" fill="#FFFFFF" font-family="'Montserrat-Light'" font-size="7.5086"> </text>
<line display="none" fill="none" stroke="#FFFFFF" stroke-width="1.182" stroke-miterlimit="10" stroke-dasharray="1.5195,7.4294" x1="432.7" y1="-32.7" x2="432.7" y2="-61"/>
<text transform="matrix(1 0 0 1 471.3402 39.0116)" fill="#CA2869" font-family="'OpenSans-Light'" font-size="10.047"> </text>
<line display="none" fill="none" stroke="#FFFFFF" stroke-width="1.182" stroke-miterlimit="10" stroke-dasharray="0.909,6.8189" x1="433" y1="-60.7" x2="385.7" y2="-60.7"/>
<path opacity="0.59" fill="#2EA199" enable-background="new    " d="M209,172.9c0.3,0,0.5-0.2,0.5-0.5v-54.5c0-0.3-0.2-0.5-0.5-0.5
	h-35.7c-0.3,0-0.5,0.2-0.5,0.5v54.5c0,0.3,0.2,0.5,0.5,0.5H209z"/>
<path fill="#2EA199" d="M209.5,172.4c0,0.3-0.2,0.5-0.5,0.5h-35.7c-0.3,0-0.5-0.2-0.5-0.5v-54.5c0-0.3,0.2-0.5,0.5-0.5H209
	c0.3,0,0.5,0.2,0.5,0.5V172.4z M191.1,182.2c-2,0-3.6-1.6-3.6-3.6s1.6-3.6,3.6-3.6s3.6,1.6,3.6,3.6S193.1,182.2,191.1,182.2
	 M188.3,111.1h5.8c0.4,0,0.8,0.4,0.8,0.8s-0.4,0.8-0.8,0.8h-5.8c-0.4,0-0.8-0.4-0.8-0.8S187.8,111.1,188.3,111.1 M212.6,112.5
	c0-5.4-4.4-9.8-9.8-9.8h-23.5c-5.4,0-9.8,4.4-9.8,9.8v63.7c0,5.4,4.4,9.8,9.8,9.8h23.5c5.4,0,9.8-4.4,9.8-9.8V112.5z"/>
<polygon fill="#ED2E7A" points="188.9,160.4 182.4,153.9 184.5,151.7 189.3,156.4 189.3,144.3 192.9,144.3 192.9,156.4 197.6,151.7 
	199.8,153.9 193.2,160.4 191.1,162.6 "/>
<path opacity="8.000000e-002" fill="#219E97" enable-background="new    " d="M456.1-157h-55c-1.9,0-3-1.8-3-3.7v-55.9
	c0-1.9,1.1-3.4,3-3.4h55v-10h-67.5c-1.3,0-2.3,1.1-2.3,2.4l1.3,78c0,1.3,1,2.6,2.3,2.6h66.2L456.1-157L456.1-157z"/>
<path opacity="8.000000e-002" fill="#219E97" enable-background="new    " d="M456.1-147h-66.2c-1.5,0-2.6-1.3-2.6-2.8l-1.3-77.7
	c0-1.5,1.2-2.6,2.6-2.6h67.5v-2h-69.8c-1.4,0-2.6,0.9-2.6,2.4l1.4,82.2c0,1.5,1.2,2.5,2.6,2.5h68.4L456.1-147L456.1-147z"/>
<path opacity="5.000000e-002" fill="#219E97" enable-background="new    " d="M456.1-220h-55c-1.9,0-3,1.5-3,3.4v55.9
	c0,1.9,1.1,3.7,3,3.7h55V-220z"/>
<g>
	<path opacity="8.000000e-002" fill="#219E97" enable-background="new    " d="M456.1-90h-5v-4c0-0.5,0.2-0.9,2.3-0.9
		c0,0,1.1,0,2.7,0.1V-97h-7v-1.1c0-0.5,0.3-0.9,0.6-0.9c0,0,1.7,0.2,3,0.2c1.2,0,3-0.2,3-0.2c0.1,0,0.3,0.1,0.4,0.2v-6.2l0,0v-1.1
		c0-0.2,0-0.3,0-0.4v-2.5h-6v-1.4c0-0.5,0.3-0.9,0.6-0.9c0,0,1.7,0.2,2.9,0.2c0.8,0,1.9-0.1,2.5-0.1V-140h-1.5l-0.3-3h-1.2l0.2,3
		h-1.7l-0.2-3h-1.2l0.2,3h-1.7l-0.2-3h-1.2l0.1,3h-1.7l-0.1-3h-1.2l0.1,3h-1.7l-0.1-3h-1.2v3h-1.7v-3h-1.1v3H437v-3h-1.2l-0.1,3H434
		l0.1-3h-1.2l-0.1,3h-1.7l0.1-3H430l-0.2,3h-1.7l0.2-3h-1.2l-0.2,3h-1.8l0.2-3h-1.2l-0.3,3h-1.7l0.3-3h-1.2l-0.3,3h-1.7l0.3-3h-1.2
		l-0.4,3h-1.7l0.4-3h-1.2l-0.4,3h-1.7l0.4-3h-1.2l-0.5,3h-1.7l0.5-3h-1.2l-0.5,3h-1.7l0.5-3h-1.2l-0.6,3h-1.7l0.6-3h-1.2l-0.6,3
		h-1.7l0.6-3h-1.2l-0.7,3h-1.7l0.7-3H398l-0.7,3h-1.7l0.7-3h-1.2l-0.8,3h-1.7l0.8-3h-1.3l-0.8,3h-1.7l0.8-3h-1.2l-0.9,3h-1.7l0.9-3
		h-1.2l-0.9,3h-1.7l0.9-3h-1.2l-1,3h-1.7l1-3h-1.2l-1,3h-1.7l1-3h-1.2l-1.1,3h-1.7l1.1-3h-1.2l-1.1,3h-1.7l1.1-3h-1.2l-1.2,3h-1.7
		l1.2-3h-1.2l-1.2,3H366l1.2-2.9v-0.3c-0.5,0.1-0.6,0.3-1.1,0.1l-1.3,3.1h-0.2l-8.7,14.9l-9.2,38.6c0.2,1.6,1.5,2.5,3.1,2.5h106.3
		L456.1-90L456.1-90z M402.1-110.3c0-0.5,0-0.9,0.4-0.9c0,0,1.8,0.2,3.1,0.2c1.4,0,3.5-0.2,3.5-0.2c0.3,0,0.9,0.4,0.9,0.9v3.3h-8
		v-3.3H402.1z M400.4-111.2c0.3,0,0.7,0.4,0.7,0.9v3.3h-8v-3.3c0-0.5,0.3-0.9,0.6-0.9c0,0,1.9,0.2,3.2,0.2
		C398.4-111.1,400.4-111.2,400.4-111.2z M390.4-128c0.2-0.1,0.1-0.3,0.1-0.4c0-0.2,0-0.4,0-0.6c0-0.4,0.1-0.8,0.1-1.2
		c0-0.1-0.1-0.3,0.2-0.3c0.3-0.1,0.5,0,0.7,0.1c1.1,0.6,2.2,1.2,3.2,1.8c0.6,0.4,1.2,0.7,2.3,0.9c-0.4,0-0.9,0-1.3,0
		c-0.2,0-1.2,0-1.3,0c0.1,0,0.2-0.1,0.3-0.1c0.2,0,0.4-0.1,0.5-0.2c0.3-0.5-3-1-3.2-0.6c-0.1,0.3,0,0.7,0.8,0.9c0,0,0,0,0,0.1
		c0,0-1.3-0.1-1.5-0.1c-0.5,0-1.1,0-1.6,0C389.8-127.8,390.4-128,390.4-128z M374.5-130.6c0.1,0,0.1,0,0.2,0c0.7,0,1.3,0,2,0
		c0.2,0,0.8,0,0.9,0c0.2,0,0.2,0.1-0.1,0.2c-0.4,0.1-0.4,0.2-0.3,0.4c0.4,0.5,0.8,0.9,1.1,1.4c0.2,0.3,0.5,0.7,1.5,0.9
		c0,0-0.1,0-0.2,0c-1.1,0-2.2,0-3.3,0c0.2,0,0.4-0.1,0.5-0.2c0.2-0.3-0.3-0.7-0.5-1c-0.3-0.4-0.5-0.7-0.8-1.1
		C375.3-130.4,374.9-130.4,374.5-130.6C374.4-130.5,374.4-130.6,374.5-130.6z M362.1-101v-1.4c0-0.5,0.2-0.9,0.6-0.9
		c0,0,1.6,0.2,2.8,0.2c1.2,0,2.9-0.2,2.9-0.2c0.3,0,0.7,0.4,0.7,0.9v1.4H362.1z M368.1-98.6v1.6h-7v-1.6c0-0.5,0.3-0.9,0.6-0.9
		c0,0,1.7,0.2,2.9,0.2s2.9-0.2,2.9-0.2C367.8-99.5,368.1-99.1,368.1-98.6z M366.7-107.2c1.2,0,3.3-0.2,3.3-0.2
		c0.3,0,1.1,0.4,1.1,0.9v1.4h-8v-1.4c0-0.5,0.3-0.9,0.6-0.9C363.7-107.3,365.5-107.2,366.7-107.2z M364.1-109v-1.2
		c0-0.5,0.3-0.9,0.6-0.9c0,0,1.6,0.2,2.9,0.2s2.9-0.2,2.9-0.2c0.3,0,0.7,0.4,0.7,0.9v1.2H364.1z M369.1-98.6c0-0.5,0.4-0.9,0.7-0.9
		c0,0,1.7,0.2,2.9,0.2c1.2,0,2.9-0.2,2.9-0.2c0.3,0,0.6,0.4,0.6,0.9v1.6h-7L369.1-98.6L369.1-98.6z M370.1-101v-1.4
		c0-0.5,0.3-0.9,0.6-0.9c0,0,1.7,0.2,2.9,0.2s2.9-0.2,2.9-0.2c0.3,0,0.6,0.4,0.6,0.9v1.4H370.1z M371.1-105v-1.4
		c0-0.5,0.4-0.9,0.7-0.9c0,0,1.7,0.2,2.9,0.2c1.2,0,2.8-0.2,2.8-0.2c0.3,0,0.6,0.4,0.6,0.9v1.4H371.1z M372.1-109v-1.2
		c0-0.5,0.3-0.9,0.6-0.9c0,0,1.7,0.2,2.9,0.2s2.9-0.2,2.9-0.2c0.3,0,0.6,0.4,0.6,0.9v1.2H372.1z M375.5-129.4c-0.1,0-0.1,0-0.1-0.1
		C375.5-129.5,375.6-129.5,375.5-129.4z M368.2-130.7c0.1,0,0.2,0,0.3,0c1.5-0.1,3.1,0,4.5,0.3c1.5,0.3,3.2,0.9,2.7,1.7
		c-0.1,0.2-0.5,0.6-1.1,0.7c-1.2,0.2-3,0.3-4.2,0.1c-0.7-0.1-0.9-0.3-1.1-0.6c-0.1-0.2-0.4-0.6-1-0.6c1,0,2.1,0,3.1,0
		c-0.1,0.1-0.6,0.1-0.5,0.2c-0.1,0.2,0,0.7,0.5,0.8c0.2,0.1,0.4,0.1,0.6,0.1c1.2,0,1.9-0.5,1.8-1c-0.2-0.8-1.8-1.5-3.8-1.7
		c-0.3,0-0.7,0-0.9,0c-0.1,0-0.2,0-0.2,0.1v0.1l-0.1,0.3c0,0,0,0.1-0.1,0.1s-0.2,0-0.2,0l0,0c0-0.1-0.1-0.2-0.3-0.3
		c-0.1,0-0.1-0.1-0.2-0.1C368-130.6,368-130.6,368.2-130.7z M363-128.1c0-0.6,0.1-1.3,0.1-1.9c0-0.2,0.1-0.9,0.9-0.6
		c0.1,0,0.2,0.1,0.3,0.1c1.3,0.7,2.6,1.5,3.9,2.2c0.3,0.2,0.7,0.4,1.3,0.4c-0.1,0,0.4,0.1,0,0.1c-0.6,0-1.2-0.1-1.7,0
		c-0.1,0-0.7,0-0.7,0c0.2-0.1,0.5-0.1,0.6-0.2c0.1-0.1,0-0.2,0-0.3c-0.1-0.2-0.4-0.5-0.9-0.5c-0.6,0-1.2,0-1.8,0
		c-0.4,0-0.2,0.6-0.1,0.7c0.1,0.1,0.4,0.3,0.7,0.3c-0.3,0.1-0.6,0.1-0.9,0c-0.4,0-0.8,0-1.2,0c-0.1,0-0.9,0-0.9,0
		C362.7-127.9,363-127.9,363-128.1z M360.9-124.6c0-0.2,0.3-0.4,0.5-0.4h4.3c0.2,0,0.4,0.2,0.4,0.4l-0.7,3.2c0,0.2-0.3,0.4-0.5,0.4
		h-4.3c-0.2,0-0.4-0.2-0.4-0.4L360.9-124.6z M356.1-110.3c0-0.5,0.2-0.9,0.5-0.9c0,0,1.7,0.2,2.9,0.2c1.2,0,2.9-0.2,2.9-0.2
		c0.3,0,0.7,0.4,0.7,0.9v1.3h-7V-110.3L356.1-110.3z M355.1-106.5c0-0.5,0.3-0.9,0.6-0.9c0,0,1.7,0.2,3,0.2c1.2,0,2.9-0.2,2.9-0.2
		c0.3,0,0.6,0.4,0.6,0.9v1.5h-7v-1.5H355.1z M354.1-102.5c0-0.5,0.2-0.9,0.5-0.9c0,0,1.6,0.2,2.8,0.2c1.2,0,3-0.2,3-0.2
		c0.3,0,0.7,0.4,0.7,0.9v1.5h-7V-102.5z M353.1-98.6c0-0.5,0.3-0.9,0.6-0.9c0,0,1.7,0.2,2.9,0.2s2.9-0.2,2.9-0.2
		c0.3,0,0.6,0.4,0.6,0.9v1.6h-7V-98.6z M359.1-91h-7v-3.6c0-0.5,0.1-0.9,0.4-0.9c0,0,1.5,0.2,2.7,0.2s3-0.2,3-0.2
		c0.3,0,0.8,0.4,0.8,0.9v3.6H359.1z M367.1-91h-7v-3.6c0-0.5,0.2-0.9,0.5-0.9c0,0,1.6,0.2,2.8,0.2c1.2,0,2.9-0.2,2.9-0.2
		c0.3,0,0.7,0.4,0.7,0.9v3.6H367.1z M384.1-91h-16v-3.6c0-0.5,0.5-0.9,1.2-0.9c0,0,3.7,0.2,6.5,0.2c2.7,0,6.8-0.2,6.8-0.2
		c0.7,0,1.5,0.4,1.5,0.9V-91z M385.1-97h-8v-1.6c0-0.5,0.5-0.9,0.8-0.9c0,0,1.8,0.2,3,0.2s3.3-0.2,3.3-0.2c0.3,0,1,0.4,1,0.9
		L385.1-97L385.1-97z M385.1-101h-7v-1.4c0-0.5,0.4-0.9,0.7-0.9c0,0,1.7,0.2,2.9,0.2c1.2,0,2.8-0.2,2.8-0.2c0.3,0,0.5,0.4,0.5,0.9
		v1.4H385.1z M387.1-105h-8v-1.4c0-0.5,0.5-0.9,0.8-0.9c0,0,1.8,0.2,3,0.2s3.3-0.2,3.3-0.2c0.3,0,1,0.4,1,0.9L387.1-105L387.1-105z
		 M387.1-109h-7v-1.2c0-0.5,0.4-0.9,0.7-0.9c0,0,1.7,0.2,2.9,0.2c1.2,0,2.8-0.2,2.8-0.2c0.3,0,0.5,0.4,0.5,0.9v1.2H387.1z
		 M388.1-127.8c-0.4,0-0.8,0-1.2,0c0.1,0,0.6-0.2,0.7-0.2s0.2-0.1,0.2-0.1c0.1-0.1,0-0.1,0-0.2c-0.4-0.5-0.9-1.1-1.3-1.6l-0.3,0.3
		c0,0.2,0,0.3,0,0.5c0,0.4-0.1,0.8-0.2,1.2c0,0.1-0.1,0.1-0.2,0.2c-0.2,0-0.5-0.1-0.6-0.2c-1-0.6-1.9-1.1-2.9-1.7
		c-0.2-0.1-0.4-0.2-0.7-0.3c0.4,0.5,0.8,1.1,1.1,1.6c0.1,0.1,0.2,0.3,0.4,0.4s0.5,0.2,0.8,0.2c0,0.1-0.3,0.1-0.4,0.1
		c-1-0.1-2.1-0.1-3.1,0c0.3-0.1,0.6-0.2,0.7-0.3c0.1-0.1,0-0.2-0.1-0.3c-0.3-0.6-0.7-1.1-1-1.7c-0.1-0.1-0.2-0.3-0.4-0.4
		c-0.1,0-0.2-0.1-0.4-0.1c0.8-0.1,1.6-0.1,2.3,0.1c0.5,0.1,0.7,0.3,1,0.5c0.5,0.4,1.1,0.7,1.7,1c0.1-0.4,0.2-0.7,0.2-1.1
		c0-0.2-0.1-0.5,0.6-0.5c0.8,0,1.5,0,2.3,0c0.1,0,0.3,0,0.2,0.1c-0.6,0-0.7,0-0.7,0.2c0.5,0.7,1,1.4,1.6,2.1
		c0.1,0.2,0.4,0.3,0.8,0.4c0.2,0,0.2,0,0.1,0.1C389.1-127.8,388.2-127.8,388.1-127.8z M396.1-97h-7v-1.8c0-0.5,0.2-0.9,0.5-0.9
		c0,0,1.6,0.2,2.9,0.2c1.2,0,3-0.2,3-0.2c0.3,0,0.6,0.4,0.6,0.9V-97z M404.1-97h-7v-1.8c0-0.5,0.3-0.9,0.6-0.9c0,0,1.7,0.2,2.9,0.2
		s2.9-0.2,2.9-0.2c0.3,0,0.6,0.4,0.6,0.9V-97z M404.1-101h-7v-1.8c0-0.5,0.3-0.9,0.6-0.9c0,0,1.7,0.2,2.9,0.2s2.9-0.2,2.9-0.2
		c0.3,0,0.6,0.4,0.6,0.9V-101z M413.1-97h-7v-1.8c0-0.5-0.1-0.9,0.2-0.9c0,0,1.5,0.2,2.7,0.2s3.2-0.2,3.2-0.2c0.3,0,0.8,0.4,0.8,0.9
		L413.1-97L413.1-97z M456.1-102.3v1.3h-7v-1.3c0-0.5,0.1-0.9,0.4-0.9c0,0,1.6,0.2,2.9,0.2c1.2,0,3-0.2,3-0.2
		C455.7-103.2,456.1-102.8,456.1-102.3z M451.4-107.1c1.2,0,3-0.2,3-0.2c0.3,0,0.7,0.4,0.7,0.9v1.4h-7v-1.4c0-0.5,0.2-0.9,0.5-0.9
		C448.6-107.3,450.2-107.1,451.4-107.1z M440.1-106.4c0-0.5,0.2-0.9,0.5-0.9c0,0,1.6,0.2,2.9,0.2c1.2,0,3-0.2,3-0.2
		c0.3,0,0.6,0.4,0.6,0.9v1.4h-7V-106.4z M434.1-109v-1.4c0-0.5,0.2-0.9,0.5-0.9c0,0,1.6,0.2,2.9,0.2c1.2,0,3-0.2,3-0.2
		c0.3,0,0.6,0.4,0.6,0.9v1.4H434.1z M442.1-109v-1.4c0-0.5,0.3-0.9,0.6-0.9c0,0,1.7,0.2,2.9,0.2c1.2,0,2.9-0.2,2.9-0.2
		c0.3,0,0.5,0.4,0.5,0.9v1.4H442.1z M441.1-102.3c0-0.5,0.2-0.9,0.5-0.9c0,0,1.6,0.2,2.9,0.2c1.2,0,3-0.2,3-0.2
		c0.3,0,0.7,0.4,0.7,0.9v1.3h-7v-1.3H441.1z M441.1-98.1c0-0.5,0.3-0.9,0.6-0.9c0,0,1.7,0.2,3,0.2c1.2,0,2.9-0.2,2.9-0.2
		c0.3,0,0.5,0.4,0.5,0.9v1.1h-7V-98.1z M448.1-117.5c0-0.5,0.1-0.9,0.5-0.9c0,0,1.8,0.2,3.1,0.2c1.4,0,3.5-0.2,3.5-0.2
		c0.3,0,0.9,0.4,0.9,0.9v3.5h-8V-117.5z M439.1-117.5c0-0.5,0.4-0.9,0.8-0.9c0,0,1.9,0.2,3.3,0.2s3.3-0.2,3.3-0.2
		c0.3,0,0.7,0.4,0.7,0.9v3.5h-8L439.1-117.5L439.1-117.5z M431.1-117.5c0-0.5,0.1-0.9,0.5-0.9c0,0,1.8,0.2,3.2,0.2
		c1.4,0,3.5-0.2,3.5-0.2c0.3,0,0.9,0.4,0.9,0.9v3.5h-8v-3.5H431.1z M433.1-110.4v1.4h-7v-1.4c0-0.5,0.2-0.9,0.5-0.9
		c0,0,1.6,0.2,2.9,0.2c1.2,0,3-0.2,3-0.2C432.8-111.3,433.1-110.9,433.1-110.4z M422.1-117.5c0-0.5,0.4-0.9,0.7-0.9
		c0,0,1.9,0.2,3.3,0.2s3.3-0.2,3.3-0.2c0.3,0,0.7,0.4,0.7,0.9v3.5h-8V-117.5z M415.1-110.4c0-0.5,0.3-0.9,0.7-0.9
		c0,0,2.4,0.2,4.1,0.2s4.2-0.2,4.2-0.2c0.4,0,0.9,0.4,0.9,0.9v1.4h-10L415.1-110.4L415.1-110.4z M416.1-106.4c0-0.5,0.3-0.9,0.6-0.9
		c0,0,1.7,0.2,3,0.2c1.2,0,2.9-0.2,2.9-0.2c0.3,0,0.5,0.4,0.5,0.9v1.4h-7V-106.4z M424.1-101h-7v-1.3c0-0.5,0.3-0.9,0.6-0.9
		c0,0,1.7,0.2,2.9,0.2s2.9-0.2,2.9-0.2c0.3,0,0.6,0.4,0.6,0.9V-101z M424.1-106.4c0-0.5,0.6-0.9,1.2-0.9c0,0,3.6,0.2,6.2,0.2
		s6.3-0.2,6.3-0.2c0.7,0,1.3,0.4,1.3,0.9v1.4h-15V-106.4z M425.1-102.3c0-0.5,0.6-0.9,1.2-0.9c0,0,3.6,0.2,6.2,0.2s6.3-0.2,6.3-0.2
		c0.7,0,1.3,0.4,1.3,0.9v1.3h-15V-102.3z M430.1-98.1c0-0.5,0.4-0.9,0.9-0.9c0,0,2.4,0.2,4.2,0.2s4.1-0.2,4.1-0.2
		c0.4,0,0.8,0.4,0.8,0.9v1.1h-10V-98.1z M450.1-90h-11v-4c0-0.5,0.2-0.9,0.7-0.9c0,0,2.7,0.2,4.7,0.2s4.7-0.2,4.7-0.2
		c0.5,0,0.9,0.4,0.9,0.9L450.1-90L450.1-90z"/>
	<polygon opacity="8.000000e-002" fill="#219E97" enable-background="new    " points="456.1,-143.2 456,-143.2 456.1,-142.6 	"/>
</g>
<path opacity="5.000000e-002" fill="#219E97" enable-background="new    " d="M456.1-137h-32.7c-1.9,0-3.3,2-3.3,3.9v55.9
	c0,1.9,1.4,3.2,3.3,3.2h32.7V-137z"/>
<path opacity="0.16" fill="#219E97" enable-background="new    " d="M456.1-74h-32.7c-1.9,0-3.3-1.3-3.3-3.2v-55.9
	c0-1.9,1.4-3.9,3.3-3.9h32.7v-10h-45.2c-1.3,0-2.3,1.4-2.3,2.6l1.3,77.9c0,1.3,1,2.5,2.3,2.5h43.9L456.1-74L456.1-74z"/>
<path opacity="0.16" fill="#219E97" enable-background="new    " d="M456.1-63h-43.9c-1.5,0-2.6-1.6-2.6-3l-1.3-78
	c0-1.5,1.2-2.9,2.6-2.9h45.2v-2h-47.5c-1.4,0-2.6,1.1-2.6,2.6l1.4,82.5c0,1.5,1.2,2.9,2.6,2.9h46.1L456.1-63L456.1-63z"/>
<path opacity="0.16" fill="#219E97" enable-background="new    " d="M456.1-13h-4v-1.6c0-0.5,0.6-0.9,1-0.9c0,0,1.6,0.1,3,0.1V-17
	h-8v-1.8c0-0.5,0.2-0.9,0.9-0.9c0,0,3.4,0.2,6,0.2c0.4,0,0.7,0,1.1,0V-21h-9v-1.9c0-0.5,0.2-0.9,0.9-0.9c0,0,3.4,0.2,6,0.2
	c0.7,0,1.4,0,2.1,0V-31h-3v-3c0-0.5,0.3-0.9,0.6-0.9c0,0,1.2,0.1,2.4,0.1V-60h-0.9l-0.1,3h-1.7l0.1-3h-1.2l-0.2,3h-1.7l0.2-3h-1.2
	l-0.2,3h-1.7l0.2-3h-1.2l-0.3,3h-1.7l0.3-3h-1.2l-0.3,3h-1.7l0.3-3h-1.2l-0.4,3h-1.7l0.4-3h-1.2l-0.4,3h-1.7l0.4-3h-1.2l-0.5,3h-1.7
	l0.5-3H432l-0.5,3h-1.7l0.5-3h-1.2l-0.6,3h-1.7l0.6-3h-1.2l-0.6,3h-1.7l0.6-3h-1.4l-0.7,3h-1.7l0.7-3h-1.2l-0.7,3h-1.7l0.7-3h-1.2
	l-0.8,3h-1.7l0.8-3h-1.2l-0.8,3h-1.7l0.8-3h-1.2l-0.9,3h-1.7l0.9-3h-1.2l-0.9,3H406l0.9-3h-1.2l-1,3H403l1-3h-1.2l-1,3h-1.7l1-3
	h-1.2l-1.1,3h-1.7l1.1-3H397l-1.1,3h-1.8l1.1-3H394l-1.2,3h-1.7l1.2-3h-1.2l-1.2,3h-1.8l1.2-2.6v-0.1c-0.5,0.1-0.6,0.2-1.1-0.1
	l-1.3,2.9h-0.2L378-41.8l-9.2,39c0.2,1.6,1.5,2.9,3.1,2.9h84.2L456.1-13L456.1-13z M424.1-26.8c0-0.5,0.2-0.9,0.5-0.9
	c0,0,1.8,0.2,3.2,0.2c1.4,0,3.4-0.2,3.4-0.2c0.3,0,0.8,0.4,0.8,0.9v3.8h-8v-3.8H424.1z M422.5-27.8c0.3,0,0.6,0.4,0.6,0.9v3.8h-8
	v-3.8c0-0.5,0.4-0.9,0.8-0.9c0,0,1.9,0.2,3.2,0.2C420.5-27.6,422.5-27.8,422.5-27.8z M412.7-44.5c0.2-0.1,0.1-0.3,0.1-0.4
	c0-0.2,0-0.4,0-0.6c0-0.4,0.1-0.8,0.1-1.2c0-0.1-0.1-0.3,0.2-0.3c0.3-0.1,0.5,0,0.7,0.1c1.1,0.6,2.2,1.2,3.2,1.8
	c0.6,0.4,1.2,0.7,2.3,0.9c-0.4,0-0.9,0-1.3,0c-0.2,0-1.2,0-1.3,0c0.1,0,0.2-0.1,0.3-0.1c0.2,0,0.4-0.1,0.5-0.2c0.3-0.5-3-1-3.2-0.6
	c-0.1,0.3,0,0.7,0.8,0.9c0,0,0,0,0,0.1c0,0-1.3-0.1-1.5-0.1c-0.5,0-1.1,0-1.6,0C412.1-44.3,412.6-44.5,412.7-44.5z M396.8-47.1
	c0.1,0,0.1,0,0.2,0c0.7,0,1.3,0,2,0c0.2,0,0.8,0,0.9,0c0.2,0,0.2,0.1-0.1,0.2c-0.4,0.1-0.4,0.2-0.3,0.4c0.4,0.5,0.8,0.9,1.1,1.4
	c0.2,0.3,0.5,0.7,1.5,0.9c0,0-0.1,0-0.2,0c-1.1,0-2.2,0-3.3,0c0.2,0,0.4-0.1,0.5-0.2c0.2-0.3-0.3-0.7-0.5-1
	c-0.3-0.4-0.5-0.7-0.8-1.1C397.6-46.9,397.2-47,396.8-47.1C396.7-47.1,396.7-47.1,396.8-47.1z M385.1-18v-1c0-0.5-0.1-0.9,0.2-0.9
	c0,0,1.5,0.2,2.7,0.2s2.7-0.2,2.7-0.2c0.3,0,0.4,0.4,0.4,0.9v1H385.1z M391.1-15.1v2.1h-7v-2.1c0-0.5,0-0.9,0.3-0.9
	c0,0,1.5,0.2,2.7,0.2s3.1-0.2,3.1-0.2C390.5-16,391.1-15.6,391.1-15.1z M389-23.7c1.2,0,3.2-0.2,3.2-0.2c0.3,0,0.9,0.4,0.9,0.9v1.9
	h-7V-23c0-0.5,0-0.9,0.3-0.9C386.4-23.8,387.8-23.7,389-23.7z M387.1-25v-1.8c0-0.5-0.1-0.9,0.2-0.9c0,0,1.5,0.2,2.7,0.2
	s2.7-0.2,2.7-0.2c0.3,0,0.4,0.4,0.4,0.9v1.8H387.1z M391.1-15.1c0-0.5,0.5-0.9,0.8-0.9c0,0,1.8,0.2,3,0.2s3.2-0.2,3.2-0.2
	c0.3,0,1,0.4,1,0.9v2.1h-8V-15.1z M392.1-18v-1c0-0.5,0.4-0.9,0.7-0.9c0,0,1.7,0.2,2.9,0.2s2.8-0.2,2.8-0.2c0.3,0,0.5,0.4,0.5,0.9v1
	H392.1z M393.1-21v-1.9c0-0.5,0.5-0.9,0.8-0.9c0,0,1.8,0.2,3,0.2s3.2-0.2,3.2-0.2c0.3,0,0.9,0.4,0.9,0.9v1.9H393.1z M395.1-25v-1.8
	c0-0.5-0.1-0.9,0.2-0.9c0,0,1.5,0.2,2.7,0.2s2.7-0.2,2.7-0.2c0.3,0,0.4,0.4,0.4,0.9v1.8H395.1z M397.8-46c-0.1,0-0.1,0-0.1-0.1
	C397.8-46,397.8-46,397.8-46z M390.4-47.2c0.1,0,0.2,0,0.3,0c1.5-0.1,3.1,0,4.5,0.3c1.5,0.3,3.2,0.9,2.7,1.7
	c-0.1,0.2-0.5,0.6-1.1,0.7c-1.2,0.2-3,0.3-4.2,0.1c-0.7-0.1-0.9-0.3-1.1-0.6c-0.1-0.2-0.4-0.6-1-0.6c1,0,2.1,0,3.1,0
	c-0.1,0.1-0.6,0.1-0.5,0.2c-0.1,0.2,0,0.7,0.5,0.8c0.2,0.1,0.4,0.1,0.6,0.1c1.2,0,1.9-0.5,1.8-1c-0.2-0.8-1.8-1.5-3.8-1.7
	c-0.3,0-0.7,0-0.9,0c-0.1,0-0.2,0-0.2,0.1v0.1l-0.1,0.3c0,0,0,0.1-0.1,0.1s-0.2,0-0.2,0l0,0c0-0.1-0.1-0.2-0.3-0.3
	c-0.1,0-0.1-0.1-0.2-0.1C390.3-47.1,390.3-47.2,390.4-47.2z M385.3-44.6c0-0.6,0.1-1.3,0.1-1.9c0-0.2,0.1-0.9,0.9-0.6
	c0.1,0,0.2,0.1,0.3,0.1c1.3,0.7,2.6,1.5,3.9,2.2c0.3,0.2,0.7,0.4,1.3,0.4c-0.1,0,0.4,0.1,0,0.1c-0.6,0-1.2-0.1-1.7,0
	c-0.1,0-0.7,0-0.7,0c0.2-0.1,0.5-0.1,0.6-0.2s0-0.2,0-0.3c-0.1-0.2-0.4-0.5-0.9-0.5c-0.6,0-1.2,0-1.8,0c-0.4,0-0.2,0.6-0.1,0.7
	s0.4,0.3,0.7,0.3c-0.3,0.1-0.6,0.1-0.9,0c-0.4,0-0.8,0-1.2,0c-0.1,0-0.9,0-0.9,0C385-44.4,385.3-44.4,385.3-44.6z M383.2-40.9
	c0-0.2,0.3-0.1,0.5-0.1h4.3c0.2,0,0.4,0,0.4,0.1l-0.7,3.3c0,0.2-0.3,0.6-0.5,0.6h-4.3c-0.2,0-0.4-0.3-0.4-0.5L383.2-40.9z
	 M378.1-26.8c0-0.5,0.3-0.9,0.6-0.9c0,0,1.8,0.2,3,0.2s2.8-0.2,2.8-0.2c0.3,0,0.6,0.4,0.6,0.9v1.8h-7V-26.8L378.1-26.8z M377.1-23
	c0-0.5,0.4-0.9,0.7-0.9c0,0,1.8,0.2,3,0.2s3.2-0.2,3.2-0.2c0.3,0,1,0.4,1,0.9v2h-8L377.1-23L377.1-23z M376.1-19
	c0-0.5,0.4-0.9,0.7-0.9c0,0,1.7,0.2,2.9,0.2c1.2,0,2.9-0.2,2.9-0.2c0.3,0,0.6,0.4,0.6,0.9v1h-7L376.1-19L376.1-19z M375.1-15.2
	c0-0.5,0.4-0.9,0.7-0.9c0,0,1.7,0.2,2.9,0.2c1.2,0,3.3-0.2,3.3-0.2c0.3,0,1,0.4,1,0.9v2.2h-8v-2.2H375.1z M381.1-8h-7v-3.1
	c0-0.5,0.3-0.9,0.6-0.9c0,0,1.6,0.2,2.8,0.2c1.2,0,2.9-0.2,2.9-0.2c0.3,0,0.7,0.4,0.7,0.9V-8z M389.1-8h-6v-3.1
	c0-0.5-0.1-0.9,0.2-0.9c0,0,1.4,0.2,2.6,0.2s2.7-0.2,2.7-0.2c0.3,0,0.5,0.4,0.5,0.9C389.1-11.1,389.1-8,389.1-8z M406.1-8h-16v-3.1
	c0-0.5,0.7-0.9,1.4-0.9c0,0,3.8,0.2,6.5,0.2s6.7-0.2,6.7-0.2c0.7,0,1.4,0.4,1.4,0.9V-8z M407.1-13h-7v-2.1c0-0.5,0.1-0.9,0.4-0.9
	c0,0,1.6,0.2,2.8,0.2c1.2,0,3-0.2,3-0.2c0.3,0,0.7,0.4,0.7,0.9v2.1H407.1z M408.1-18h-7v-1c0-0.5,0.1-0.9,0.4-0.9
	c0,0,1.5,0.2,2.8,0.2c1.2,0,3.1-0.2,3.1-0.2c0.3,0,0.8,0.4,0.8,0.9L408.1-18L408.1-18z M409.1-21h-7v-1.9c0-0.5,0.1-0.9,0.4-0.9
	c0,0,1.6,0.2,2.8,0.2c1.2,0,3-0.2,3-0.2c0.3,0,0.7,0.4,0.7,0.9v1.9H409.1z M410.1-25h-7v-1.8c0-0.5,0.1-0.9,0.4-0.9
	c0,0,1.5,0.2,2.8,0.2c1.2,0,3.1-0.2,3.1-0.2c0.3,0,0.8,0.4,0.8,0.9L410.1-25L410.1-25z M410.3-44.3c-0.4,0-0.8,0-1.2,0
	c0.1,0,0.6-0.2,0.7-0.2s0.2-0.1,0.2-0.1c0.1-0.1,0-0.1,0-0.2c-0.4-0.5-0.9-1.1-1.3-1.6l-0.3,0.3c0,0.2,0,0.3,0,0.5
	c0,0.4-0.1,0.8-0.2,1.2c0,0.1-0.1,0.1-0.2,0.2c-0.2,0-0.5-0.1-0.6-0.2c-1-0.6-1.9-1.1-2.9-1.7c-0.2-0.1-0.4-0.2-0.7-0.3
	c0.4,0.5,0.8,1.1,1.1,1.6c0.1,0.1,0.2,0.3,0.4,0.4c0.2,0.1,0.5,0.2,0.8,0.2c0,0.1-0.3,0.1-0.4,0.1c-1-0.1-2.1-0.1-3.1,0
	c0.3-0.1,0.6-0.2,0.7-0.3s0-0.2-0.1-0.3c-0.3-0.6-0.7-1.1-1-1.7c-0.1-0.1-0.2-0.3-0.4-0.4c-0.1,0-0.2-0.1-0.4-0.1
	c0.8-0.1,1.6-0.1,2.3,0.1c0.5,0.1,0.7,0.3,1,0.5c0.5,0.4,1.1,0.7,1.7,1c0.1-0.4,0.2-0.7,0.2-1.1c0-0.2-0.1-0.5,0.6-0.5
	c0.8,0,1.5,0,2.3,0c0.1,0,0.3,0,0.2,0.1c-0.6,0-0.7,0-0.7,0.2c0.5,0.7,1,1.4,1.6,2.1c0.1,0.2,0.4,0.3,0.8,0.4c0.2,0,0.2,0,0.1,0.1
	C411.4-44.3,410.5-44.3,410.3-44.3z M419.1-14h-8v-1.3c0-0.5,0.3-0.9,0.6-0.9c0,0,1.7,0.2,3,0.2c1.2,0,3.4-0.2,3.4-0.2
	c0.3,0,1,0.4,1,0.9V-14z M427.1-14h-7v-1.3c0-0.5-0.1-0.9,0.2-0.9c0,0,1.5,0.2,2.8,0.2c1.2,0,3.2-0.2,3.2-0.2c0.3,0,0.8,0.4,0.8,0.9
	V-14z M427.1-18h-7v-1.4c0-0.5-0.1-0.9,0.2-0.9c0,0,1.5,0.2,2.8,0.2c1.2,0,3.2-0.2,3.2-0.2c0.3,0,0.8,0.4,0.8,0.9V-18z M435.1-14h-7
	v-1.3c0-0.5,0-0.9,0.4-0.9c0,0,1.6,0.2,2.8,0.2c1.2,0,3.1-0.2,3.1-0.2c0.3,0,0.7,0.4,0.7,0.9V-14z M455.1-27.9c0.3,0,1,0.4,1,0.9v2
	h-8v-2c0-0.5,0.3-0.9,0.6-0.9c0,0,1.8,0.2,3.1,0.2C453-27.7,455.1-27.9,455.1-27.9z M445.1-34c0-0.5,0-0.9,0.4-0.9
	c0,0,1.8,0.2,3.1,0.2c1.4,0,3.1-0.2,3.1-0.2c0.3,0,0.4,0.4,0.4,0.9v3h-7V-34z M437.1-27c0-0.5,0.4-0.9,0.9-0.9c0,0,2.4,0.2,4.2,0.2
	s4.1-0.2,4.1-0.2c0.4,0,0.8,0.4,0.8,0.9v2h-10V-27z M438.1-22.9c0-0.5,0.5-0.9,0.8-0.9c0,0,1.8,0.2,3,0.2s3.3-0.2,3.3-0.2
	c0.3,0,0.9,0.4,0.9,0.9v1.9h-8L438.1-22.9L438.1-22.9z M447.1-17h-8v-1.8c0-0.5,0.4-0.9,0.7-0.9c0,0,1.8,0.2,3,0.2s3.3-0.2,3.3-0.2
	c0.3,0,1,0.4,1,0.9V-17z"/>
<path opacity="8.000000e-002" fill="#ED2E7A" enable-background="new    " d="M456.1,34.1c-4.4,4.9-11.1,8-18.5,8l-244.4,0.8
	c-13.4,0-24.2-10-24.2-22.4l-3.4-168.8c0-12.4,10.8-22.7,24.2-22.7h250.3c6.1,0,11.8,2.5,16,6v-14h-291c-7.1,0-12.8,5.2-12.8,11.7
	l3.3,213.7c0,6.6,5.8,11.6,12.8,11.6h287.7L456.1,34.1L456.1,34.1z"/>
<path opacity="0.16" fill="#ED2E7A" enable-background="new    " d="M456.1,131.8l-0.9,0.9l-17.1-3.2v0.6c0,0.4,0.2,0.8,0.5,1.1
	l0.6,0.6c0.1,0.1,0.2,0.1,0.2,0.2l0.3,0.6c0.1,0.2,0.4,0.4,0.6,0.4l15.7,2.7L456.1,131.8L456.1,131.8z"/>
<path opacity="0.16" fill="#ED2E7A" enable-background="new    " d="M456.1,116.8c-3.7-0.5-7.5-1-8-1.1l-9.4,11
	c-0.4,0.4-0.6,1-0.6,1.5v0.9l17,3.2l1-1V116.8z"/>
<path opacity="0.16" fill="#ED2E7A" enable-background="new    " d="M456.1,111.7l-0.5-0.1c-0.4-0.1-0.8,0.2-1.2,0.4l-5.6,3
	c-0.1,0.1-0.4,0.3-0.6,0.4c0.9,0.1,4.5,0.6,7.9,1L456.1,111.7L456.1,111.7z"/>
<path opacity="6.000000e-002" fill="#219E97" enable-background="new    " d="M180.5-195h-44.4v60h44.4c1.8,0,3.6-1.4,3.6-3.2v-53.7
	C184.1-193.7,182.3-195,180.5-195z"/>
<path opacity="0.16" fill="#219E97" enable-background="new    " d="M192.6-205h-56.5v10h44.4c1.8,0,3.6,1.3,3.6,3.1v53.6
	c0,1.8-1.8,3.2-3.6,3.2h-44.4v10h55.2c1.2,0,2.2-1.3,2.2-2.6l1.3-74.9C194.8-203.7,193.8-205,192.6-205z"/>
<path opacity="0.16" fill="#219E97" enable-background="new    " d="M194.7-207h-58.6v2h56.5c1.4,0,2.5,1.2,2.5,2.6l-1.3,74.7
	c0,1.4-1.1,2.7-2.5,2.7h-55.2v2h57.3c1.4,0,2.5-1.2,2.5-2.6l1.3-79.1C197.2-206,196.1-207,194.7-207z"/>
<path opacity="0.16" fill="#219E97" enable-background="new    " d="M224.2-104.4l-8.4-14.6h-0.2l-1.2-2.7c-0.5,0.2-0.6,0.2-1.1,0.1
	c0,0,0,0,0,0.1l1.1,2.5h-1.7l-1.2-2h-1.2l1.1,2h-1.7l-1.1-2h-1.2l1.1,2h-1.7l-1.1-2h-1.2l1,2h-1.7l-1-2h-1.2l1,2h-1.7l-1-2h-1.2l1,2
	H198l-0.9-2h-1.2l0.9,2h-1.7l-0.9-2H193l0.9,2h-1.7l-0.8-2h-1.2l0.8,2h-1.7l-0.8-2h-1.2l0.8,2h-1.7l-0.7-2h-1.2l0.7,2h-1.7l-0.7-2
	h-1.2l0.7,2h-1.7l-0.6-2h-1.2l0.6,2h-1.7l-0.6-2h-1.2l0.6,2h-1.7l-0.5-2h-0.2l0.5,2h-1.7l-0.5-2h-1.2l0.5,2h-1.6l-0.4-2h-1.2l0.4,2
	h-1.7l-0.4-2h-1.2l0.4,2h-1.7l-0.4-2h-1.2l0.3,2h-1.7l-0.3-2h-0.9l0.3,2h-1.7l-0.3-2h-1.2l0.2,2h-1.7l-0.2-2h-1.2l0.2,2h-1.4l-0.2-2
	h-1.2l0.1,2h-1.7l-0.1-2h-1.2l0.1,2h-1.7l-0.1-2h-1.2v2h-1.4v-2h-1v2h-1.7v-2h-1.1l-0.1,2h-1.7l0.1-2h-1.1l-0.1,2h-1.7l0.1-2h-0.1
	v30.2c0.6,0,1.2,0.1,1.7,0.1c1.2,0,2.8-0.2,2.8-0.2c0.3,0,0.5,0.4,0.5,0.9v1h-5v6l0,0c0,0,1.7,0.2,2.9,0.2s2.7-0.2,2.7-0.2
	c0.3,0,0.4,0.4,0.4,0.9v1.2h-6v2c0.6,0,1.7,0.1,2.6,0.1c1.2,0,2.8-0.2,2.8-0.2c0.3,0,0.6,0.4,0.6,0.9v1.2h-6v1.9
	c0.9,0,1.9,0.1,2.8,0.1c1.9,0,4.5-0.2,4.5-0.2c0.5,0,0.7,0.4,0.7,0.9v3.3h-8v7H230c1.5,0,2.8-1.4,3-2.9L224.2-104.4z M152.1-96.8
	c0-0.5,0.6-0.9,0.9-0.9c0,0,2,0.2,3.3,0.2s3.1-0.2,3.1-0.2c0.3,0,0.6,0.4,0.6,0.9v3.8h-8L152.1-96.8L152.1-96.8z M144.1-86.1
	c0-0.5,0.6-0.9,1.2-0.9c0,0,3.5,0.2,6.1,0.2s5.8-0.2,5.8-0.2c0.6,0,0.9,0.4,0.9,0.9v1.1h-14V-86.1z M142.1-89v-1
	c0-0.5,0.3-0.9,0.6-0.9c0,0,1.8,0.2,2.9,0.2c1.2,0,2.9-0.2,2.9-0.2c0.3,0,0.6,0.4,0.6,0.9v1H142.1z M149.1-89v-1
	c0-0.5,0.7-0.9,1-0.9c0,0,1.9,0.2,3.1,0.2c1.2,0,2.6-0.2,2.6-0.2c0.3,0,0.3,0.4,0.3,0.9v1H149.1z M144.1-96.8c0-0.5,0.5-0.9,0.9-0.9
	c0,0,2,0.2,3.3,0.2s3.2-0.2,3.2-0.2c0.3,0,0.6,0.4,0.6,0.9v3.8h-8V-96.8z M136.1-93v-3.8c0-0.5,0.4-0.9,0.8-0.9c0,0,1.9,0.2,3.2,0.2
	s3.3-0.2,3.3-0.2c0.3,0,0.7,0.4,0.7,0.9v3.8H136.1z M136.1-85v-1.1c0-0.5,0.5-0.9,0.8-0.9c0,0,1.7,0.2,2.9,0.2s2.8-0.2,2.8-0.2
	c0.3,0,0.5,0.4,0.5,0.9v1.1H136.1z M152.1-77h-9v-1.2c0-0.5,0.3-0.9,0.7-0.9c0,0,2.3,0.2,4,0.2s3.8-0.2,3.8-0.2
	c0.4,0,0.5,0.4,0.5,0.9V-77z M157.1-81h-14v-1.2c0-0.5,0.6-0.9,1.2-0.9c0,0,3.5,0.2,6,0.2s5.8-0.2,5.8-0.2c0.6,0,0.9,0.4,0.9,0.9
	v1.2H157.1z M165.1-81h-7v-1.2c0-0.5,0.4-0.9,0.7-0.9c0,0,1.8,0.2,3,0.2s2.8-0.2,2.8-0.2c0.3,0,0.5,0.4,0.5,0.9V-81z M166.1-85h-7
	v-1.1c0-0.5,0.4-0.9,0.7-0.9c0,0,1.7,0.2,2.9,0.2s2.8-0.2,2.8-0.2c0.3,0,0.6,0.4,0.6,0.9V-85z M167.1-89h-10v-1
	c0-0.5,0.6-0.9,1.1-0.9c0,0,2.5,0.2,4.2,0.2s4-0.2,4-0.2c0.4,0,0.7,0.4,0.7,0.9V-89z M226.1-82.4v1.4h-7v-1.4c0-0.5,0.3-0.9,0.6-0.9
	c0,0,1.6,0.2,2.8,0.2s2.9-0.2,2.9-0.2C225.7-83.2,226.1-82.8,226.1-82.4z M225.1-86.2v1.2h-7v-1.2c0-0.5,0.2-0.9,0.5-0.9
	c0,0,1.6,0.2,2.8,0.2s3-0.2,3-0.2C224.7-87.1,225.1-86.7,225.1-86.2z M202.1-86.2c0-0.5,0.5-0.9,0.8-0.9c0,0,1.8,0.2,2.9,0.2
	c1.2,0,2.7-0.2,2.7-0.2c0.3,0,0.5,0.4,0.5,0.9v1.2h-7v-1.2H202.1z M201.1-89v-0.8c0-0.5,0.6-0.9,0.9-0.9c0,0,1.8,0.2,2.9,0.2
	c1.2,0,2.7-0.2,2.7-0.2c0.3,0,0.5,0.4,0.5,0.9v0.8H201.1z M203.1-82.3c0-0.5,0.5-0.9,0.8-0.9c0,0,1.7,0.2,2.9,0.2s2.7-0.2,2.7-0.2
	c0.3,0,0.5,0.4,0.5,0.9v1.3h-7v-1.3H203.1z M209.1-89v-0.8c0-0.5,0.4-0.9,0.7-0.9c0,0,1.7,0.2,2.9,0.2s2.8-0.2,2.8-0.2
	c0.3,0,0.6,0.4,0.6,0.9v0.8H209.1z M204.1-78.6c0-0.5,0.5-0.9,0.8-0.9c0,0,1.8,0.2,2.9,0.2c1.2,0,2.8-0.2,2.8-0.2
	c0.3,0,0.6,0.4,0.6,0.9v1.6h-7v-1.6H204.1z M210.1-85v-1.2c0-0.5,0.3-0.9,0.6-0.9c0,0,1.7,0.2,2.9,0.2s2.9-0.2,2.9-0.2
	c0.3,0,0.6,0.4,0.6,0.9v1.2H210.1z M211.1-82.3c0-0.5,0.4-0.9,0.7-0.9c0,0,1.7,0.2,2.9,0.2s2.9-0.2,2.9-0.2c0.3,0,0.6,0.4,0.6,0.9
	v1.3h-7L211.1-82.3L211.1-82.3z M212.1-78.6c0-0.5,0.3-0.9,0.6-0.9c0,0,1.7,0.2,2.9,0.2s2.9-0.2,2.9-0.2c0.3,0,0.6,0.4,0.6,0.9v1.6
	h-7V-78.6z M223.5-90.7c0.3,0,0.6,0.4,0.6,0.9v0.9h-7v-0.9c0-0.5,0.3-0.9,0.6-0.9c0,0,1.7,0.2,2.9,0.2
	C221.7-90.6,223.5-90.7,223.5-90.7z M219.1-103.7l0.6,3.2c0,0.2-0.1,0.4-0.3,0.4h-4.1c-0.2,0-0.4-0.2-0.5-0.4l-0.6-3.2
	c0-0.2,0.1-0.4,0.3-0.4h4.2C218.9-104,219.1-103.8,219.1-103.7z M215.9-109.2c0.1,0,0.2-0.1,0.3-0.1c0.8-0.2,0.9,0.4,0.9,0.6
	c0,0.6,0.1,1.2,0.1,1.8c0,0.2,0.3,0.2,0.5,0.3c0,0-0.8,0-0.9,0c-0.4,0-0.8,0-1.2,0c-0.3,0-0.6,0-0.9,0c0.3,0,0.5-0.2,0.6-0.3
	c0.1-0.1,0.2-0.6-0.1-0.6c-0.6,0-1.2,0-1.8,0c-0.5,0-0.8,0.3-0.9,0.5c-0.1,0.1-0.1,0.2,0,0.3c0.1,0.1,0.4,0.1,0.6,0.2
	c0,0-0.6,0-0.7,0c-0.6,0-1.1,0-1.7,0c-0.4,0,0.1-0.1,0-0.1c0.6,0,0.9-0.2,1.2-0.4C213.4-107.8,214.6-108.5,215.9-109.2z
	 M207.6-109.1c1.3-0.3,2.8-0.4,4.3-0.3c0.1,0,0.2,0,0.2,0c0.1,0,0.1,0.1,0.1,0.1s-0.1,0.1-0.2,0.1c-0.1,0.1-0.2,0.2-0.3,0.3l0,0
	c0,0-0.1,0-0.2,0c-0.1,0-0.1-0.1-0.1-0.1l-0.1-0.3c-0.1,0,0-0.1,0-0.1s-0.1-0.1-0.2-0.1c-0.3,0-0.6,0-0.9,0c-2,0.1-3.5,0.8-3.7,1.6
	c-0.1,0.4,0.6,0.9,1.8,0.9c0.2,0,0.4,0,0.6-0.1c0.4-0.1,0.5-0.6,0.5-0.8c0.1-0.2-0.4-0.1-0.5-0.2c1,0,2,0,3,0
	c-0.6,0-0.8,0.4-0.9,0.5c-0.2,0.3-0.4,0.5-1,0.6c-1.2,0.2-2.9,0.1-4-0.1c-0.5-0.1-0.9-0.5-1-0.7
	C204.6-108.3,206.2-108.8,207.6-109.1z M205.3-108.3C205.3-108.3,205.3-108.2,205.3-108.3C205.1-108.3,205.1-108.3,205.3-108.3z
	 M202.4-107.5c0.3-0.4,0.7-0.9,1-1.3c0.1-0.2,0.1-0.3-0.3-0.3c-0.2,0-0.2-0.1-0.1-0.1c0.2,0,0.7,0,0.9,0c0.6,0,1.3,0,1.9,0
	c0.1,0,0.1,0,0.2,0c0.1,0,0.1,0,0.1,0.1c-0.5,0.1-0.9,0.1-1,0.3c-0.2,0.4-0.5,0.7-0.7,1.1c-0.2,0.3-0.7,0.7-0.5,1
	c0,0.1,0.3,0.2,0.5,0.2c-1,0-2.1,0-3.1,0c-0.1,0-0.2,0-0.2,0C201.9-106.8,202.2-107.2,202.4-107.5z M186.7-107.5
	c1-0.6,2.1-1.2,3.1-1.8c0.1-0.1,0.4-0.2,0.6-0.1c0.3,0.1,0.2,0.2,0.2,0.3c0,0.4,0,0.8,0.1,1.2c0,0.2,0,0.4,0,0.6
	c0,0.1-0.1,0.3,0.1,0.4l0.6,0.2c-0.5,0-1,0-1.5,0c-0.1,0-1.4,0.1-1.4,0.1v-0.1c0.8-0.1,0.9-0.5,0.8-0.8c-0.2-0.4-3.3,0-3,0.6
	c0,0.1,0.3,0.1,0.5,0.2c0.1,0,0.2,0,0.3,0.1c-0.1,0-1,0-1.2,0c-0.4,0-0.9,0-1.3,0C185.5-106.8,186.1-107.2,186.7-107.5z M180.1-89.9
	c0-0.5,0.6-0.9,0.9-0.9c0,0,2,0.2,3.3,0.2s3.1-0.2,3.1-0.2c0.3,0,0.6,0.4,0.6,0.9v2.9h-8L180.1-89.9L180.1-89.9z M172.1-89.9
	c0-0.5,0.5-0.9,0.9-0.9c0,0,2,0.2,3.3,0.2s3.2-0.2,3.2-0.2c0.3,0,0.6,0.4,0.6,0.9v2.9h-8V-89.9z M176.1-77h-7v-1.8
	c0-0.5,0.6-0.9,0.9-0.9c0,0,1.9,0.2,3,0.2c1.2,0,2.7-0.2,2.7-0.2c0.3,0,0.4,0.4,0.4,0.9C176.1-78.8,176.1-77,176.1-77z M184.1-77h-7
	v-1.8c0-0.5,0.5-0.9,0.8-0.9c0,0,1.8,0.2,3,0.2s2.7-0.2,2.7-0.2c0.3,0,0.4,0.4,0.4,0.9v1.8H184.1z M184.1-81h-7v-1.7
	c0-0.5,0.5-0.9,0.8-0.9c0,0,1.8,0.2,3,0.2s2.7-0.2,2.7-0.2c0.3,0,0.4,0.4,0.4,0.9v1.7H184.1z M192.1-77h-7v-1.8
	c0-0.5,0.5-0.9,0.8-0.9c0,0,1.8,0.2,3,0.2s2.8-0.2,2.8-0.2c0.3,0,0.5,0.4,0.5,0.9v1.8H192.1z M193.1-106.7c-0.2,0-1,0-1.1,0
	c-0.1-0.1-0.1-0.1,0.1-0.1c0.4-0.1,0.7-0.2,0.8-0.3c0.5-0.7,1-1.3,1.5-2c0-0.2,0-0.2-0.6-0.2c-0.1-0.1,0.1-0.1,0.2-0.1
	c0.7,0,1.4,0,2.2,0c0.6,0,0.6,0.3,0.6,0.5c0,0.3,0.1,0.7,0.2,1c0.6-0.3,1.2-0.6,1.6-1c0.3-0.2,0.5-0.4,1-0.5
	c0.6-0.2,1.5-0.1,2.2-0.1c-0.1,0-0.3,0-0.4,0.1c-0.2,0.1-0.3,0.3-0.4,0.4c-0.3,0.5-0.7,1.1-1,1.6c-0.1,0.1-0.1,0.2-0.1,0.3
	c0.1,0.1,0.4,0.2,0.7,0.3c-1,0-2,0-3,0c-0.2,0-0.4,0-0.4-0.1c0.3,0,0.6-0.1,0.8-0.2s0.3-0.2,0.4-0.3c0.4-0.5,0.7-1,1.1-1.5
	c-0.3,0.1-0.5,0.2-0.7,0.3c-0.9,0.5-1.9,1.1-2.8,1.6c-0.2,0.1-0.4,0.2-0.6,0.2c-0.1,0-0.2-0.1-0.2-0.1c-0.1-0.4-0.2-0.7-0.2-1.1
	c0-0.2,0-0.3,0-0.5l-0.3-0.3c-0.4,0.5-0.8,1-1.2,1.6c0,0.1-0.1,0.1,0,0.2c0,0,0.1,0.1,0.2,0.1c0.1,0,0.6,0.2,0.7,0.2
	C193.9-106.6,193.5-106.6,193.1-106.7z M194.1-89.8c0-0.5,0.1-0.9,0.4-0.9c0,0,1.5,0.2,2.7,0.2s2.6-0.2,2.6-0.2
	c0.3,0,0.3,0.4,0.3,0.9v0.8h-6V-89.8z M194.1-86.2c0-0.5,0.5-0.9,0.8-0.9c0,0,1.8,0.2,3,0.2s2.7-0.2,2.7-0.2c0.3,0,0.5,0.4,0.5,0.9
	v1.2h-7V-86.2z M196.1-82.3c0-0.5,0.1-0.9,0.4-0.9c0,0,1.5,0.2,2.7,0.2s2.6-0.2,2.6-0.2c0.3,0,0.4,0.4,0.4,0.9v1.3h-6L196.1-82.3
	L196.1-82.3z M196.1-78.6c0-0.5,0.5-0.9,0.8-0.9c0,0,1.8,0.2,2.9,0.2c1.2,0,2.7-0.2,2.7-0.2c0.3,0,0.5,0.4,0.5,0.9v1.6h-7v-1.6
	H196.1z M212.1-71h-15v-3.8c0-0.5,0.7-0.9,1.3-0.9c0,0,3.7,0.2,6.3,0.2s6.2-0.2,6.2-0.2c0.7,0,1.1,0.4,1.1,0.9L212.1-71L212.1-71z
	 M220.1-71h-7v-3.8c0-0.5,0.4-0.9,0.7-0.9c0,0,1.7,0.2,2.8,0.2c1.2,0,2.8-0.2,2.8-0.2c0.3,0,0.6,0.4,0.6,0.9L220.1-71L220.1-71z
	 M220.1-78.7c0-0.5,0.2-0.9,0.5-0.9c0,0,1.6,0.2,2.8,0.2s2.9-0.2,2.9-0.2c0.3,0,0.8,0.4,0.8,0.9v1.7h-7V-78.7z M227.1-71h-6v-3.8
	c0-0.5,0.4-0.9,0.7-0.9c0,0,1.7,0.2,2.8,0.2c1.2,0,2.4-0.2,2.4-0.2c0.3,0,0.2,0.4,0.2,0.9L227.1-71L227.1-71z"/>
<path opacity="8.000000e-002" fill="#ED2E7A" enable-background="new    " d="M165.1-180h291v-32H151.5c-6.3,0-11.9,2.9-15.4,7.4
	V36.1c0.7,10.3,1.4,20.4,2.2,30.4c0.2,9.6,8.7,17.5,19.1,17.5c21.1,0.7,42.2,1.3,63.3,1.7c-20.9,5.9-34.5,13.3-37.1,22.3h265.5
	c-2.5-9-16.3-16.4-37.2-22.3c14.7-0.3,29.5-0.7,44.2-1.1V59H168.4c-7.5,0-13.7-5.5-13.7-12.5l-3.3-213.9
	C151.4-174.4,157.5-180,165.1-180z M160.1-201h91v12h-91V-201z"/>
<path opacity="9.000000e-002" fill="#ED2E7A" enable-background="new    " d="M174.1-57h-38v49h38c1.1,0,2-0.4,2-1.6v-45.5
	C176.1-56.2,175.2-57,174.1-57z"/>
<path opacity="0.16" fill="#ED2E7A" enable-background="new    " d="M241.2,30.2l-8.9-11.5l0,0h-0.1h-0.1l0,0l0,0l0,0l0,0h0.1h-0.1
	l-6-2.6v2.4c-2,0.3-7.7,0.6-9.2-1c-0.4-0.4-0.4-1-0.2-1.7c0.4-1.3,0.2-2.5-0.5-3.3c-1.3-1.5-4-1.6-5.3-1.6l-1.1-3l-6.1-8.2
	c-0.2-0.5-0.8-0.6-1.3-0.6h-18.2c1.5-2,2.4-3.6,2.4-5.7l2.4-54.6c0-3.9-3.1-6.7-6.9-6.7h-46v11h38c1.1,0,2,0.8,2,1.9v45.5
	c0,1.2-0.9,1.6-2,1.6h-38v2h5.5l-4,4h-1.5v12.1c0.3,0,0.5,0,0.8,0c0.9,0,2-0.1,2-0.1c0.2,0,0.3,0.3,0.3,0.7v1.4h-3.1v0.3
	c0.4,0,1.2,0.1,1.9,0.1c0.9,0,1.9-0.1,1.9-0.1c0.2,0,0.2,0.3,0.2,0.7v1.1h-4v0.5c0.4,0,0.8,0,1.2,0c0.9,0,2.3-0.1,2.3-0.1
	c0.2,0,0.6,0.3,0.6,0.7v1.9h-4.1l0,0c0.2,0,0.3,0,0.5,0c0.9,0,2.1-0.1,2.1-0.1c0.2,0,0.4,0.3,0.4,0.7v1.5h-3v0.2c0.2,0,0.5,0,0.7,0
	c1.4,0,3.5-0.1,3.5-0.1c0.4,0,0.8,0.3,0.8,0.7v3.2h-5v3h78.2h1.7c0,0,0,0.1,0,0c0-0.4-0.1-1-0.3-1.6c0-0.1-0.1-0.2-0.1-0.4L211.2,12
	c1.4,0,3.4,0.2,4.3,1.3c0.5,0.6,0.6,1.4,0.3,2.5c-0.3,1-0.1,1.9,0.5,2.6c1.1,1.3,3.6,1.6,5.9,1.6c1.6,0,2.8-0.2,3.8-0.3V21
	c0,0.2,0.2,0.4,0.3,0.6l12.9,11.5c0.2,0.1,0.4,0.2,0.6,0.2l14.5-2.5c0.2,0,0.4-0.2,0.5-0.4l0.3-0.5c0-0.1,0.1-0.1,0.2-0.2l0.4-0.5
	c0.3-0.2,0.2-0.6,0.2-1v-0.5L241.2,30.2z M171-3.2h1.1v0.7H171V-3.2z M168.1,10.8c0-0.4,0.4-0.7,0.6-0.7c0,0,1.2,0.1,2.1,0.1
	c0.8,0,2-0.1,2-0.1c0.2,0,0.3,0.3,0.3,0.7V12h-5C168.1,12,168.1,10.8,168.1,10.8z M168.1,13.1c0-0.4,0.4-0.7,0.7-0.7
	c0,0,1.4,0.1,2.2,0.1c0.9,0,1.9-0.1,1.9-0.1c0.2,0,0.2,0.3,0.2,0.7V14h-5C168.1,14,168.1,13.1,168.1,13.1z M151.1,12.9V14h-10v-1.1
	c0-0.4,0.4-0.7,0.9-0.7c0,0,2.6,0.1,4.4,0.1s4.2-0.1,4.2-0.1C151,12.3,151.1,12.5,151.1,12.9z M146.1,10.6c0-0.4,0.1-0.7,0.3-0.7
	c0,0,1.2,0.1,2.1,0.1c0.9,0,2.2-0.1,2.2-0.1c0.2,0,0.5,0.3,0.5,0.7V12h-5v-1.4H146.1z M140.1,12v-1.4c0-0.4,0.2-0.7,0.4-0.7
	c0,0,1.3,0.1,2.1,0.1c0.9,0,2.1-0.1,2.1-0.1c0.2,0,0.4,0.3,0.4,0.7V12H140.1z M147.1,19h-7v-1.5c0-0.4,0.1-0.7,0.4-0.7
	c0,0,1.6,0.1,2.9,0.1c1.2,0,3-0.1,3-0.1c0.3,0,0.6,0.3,0.6,0.7V19H147.1z M151.1,17h-11v-1.9c0-0.4,0.6-0.7,1-0.7
	c0,0,2.6,0.1,4.5,0.1c1.8,0,4.5-0.1,4.5-0.1c0.5,0,0.9,0.3,0.9,0.7V17H151.1z M156.1,17h-5v-1.9c0-0.4,0.5-0.7,0.7-0.7
	c0,0,1.4,0.1,2.3,0.1s1.9-0.1,1.9-0.1c0.2,0,0.2,0.3,0.2,0.7L156.1,17L156.1,17z M157.1,14h-5v-1.1c0-0.4,0.3-0.7,0.5-0.7
	c0,0,1.3,0.1,2.2,0.1s2-0.1,2-0.1c0.2,0,0.3,0.3,0.3,0.7V14z M158.1,12h-7v-1.4c0-0.4,0.5-0.7,0.8-0.7c0,0,1.9,0.1,3.1,0.1
	c1.2,0,2.8-0.1,2.8-0.1c0.3,0,0.3,0.3,0.3,0.7C158.1,10.6,158.1,12,158.1,12z M167.1,17h-5v-1.6c0-0.4,0.2-0.7,0.4-0.7
	c0,0,1.4,0.1,2.3,0.1c1,0,2-0.1,2-0.1c0.2,0,0.2,0.3,0.2,0.7V17H167.1z M167.1,14h-5v-0.9c0-0.4,0.5-0.7,0.7-0.7
	c0,0,1.4,0.1,2.2,0.1c0.9,0,1.9-0.1,1.9-0.1c0.2,0,0.2,0.3,0.2,0.7C167.1,13.1,167.1,14,167.1,14z M167.1,12h-4v-1.2
	c0-0.4,0.1-0.7,0.3-0.7c0,0,1.1,0.1,2,0.1c0.8,0,1.7-0.1,1.7-0.1c0.2,0,0.1,0.3,0.1,0.7V12H167.1z M174.1,17h-6v-1.6
	c0-0.4,0.4-0.7,0.7-0.7c0,0,1.4,0.1,2.4,0.1s2.4-0.1,2.4-0.1c0.2,0,0.6,0.3,0.6,0.7L174.1,17L174.1,17z M174.1,10.8
	c0-0.4,0.2-0.7,0.4-0.7c0,0,1.2,0.1,2.1,0.1c0.8,0,2.1-0.1,2.1-0.1c0.2,0,0.4,0.3,0.4,0.7V12h-5V10.8z M174.1,13.1
	c0-0.4,0.4-0.7,0.6-0.7c0,0,1.3,0.1,2.2,0.1s2-0.1,2-0.1c0.2,0,0.2,0.3,0.2,0.7V14h-5V13.1z M180.1,17h-6v-1.6
	c0-0.4,0.6-0.7,0.9-0.7c0,0,1.6,0.1,2.5,0.1c1,0,2.2-0.1,2.2-0.1c0.2,0,0.4,0.3,0.4,0.7C180.1,15.4,180.1,17,180.1,17z M209.1,15.4
	V17h-5v-1.6c0-0.4,0.5-0.7,0.7-0.7c0,0,1.4,0.1,2.3,0.1s1.9-0.1,1.9-0.1C209.1,14.8,209.1,15.1,209.1,15.4z M193.1,15.5
	c0-0.4,0.1-0.7,0.3-0.7c0,0,1.2,0.1,2.1,0.1c0.9,0,2.1-0.1,2.1-0.1c0.2,0,0.5,0.3,0.5,0.7V17h-5C193.1,17,193.1,15.5,193.1,15.5z
	 M192.1,14v-0.9c0-0.4,0.1-0.7,0.3-0.7c0,0,1.2,0.1,2,0.1c0.9,0,2.2-0.1,2.2-0.1c0.2,0,0.5,0.3,0.5,0.7V14H192.1z M194.1,17.9
	c0-0.4,0.2-0.7,0.4-0.7c0,0,1.2,0.1,2.1,0.1s2.1-0.1,2.1-0.1c0.2,0,0.4,0.3,0.4,0.7V19h-5V17.9z M198.1,17v-1.5
	c0-0.4,0.5-0.7,0.7-0.7c0,0,1.4,0.1,2.3,0.1s1.8-0.1,1.8-0.1c0.2,0,0.1,0.3,0.1,0.7V17H198.1z M199.1,17.9c0-0.4,0.6-0.7,0.8-0.7
	c0,0,1.5,0.1,2.3,0.1c0.9,0,2.3-0.1,2.3-0.1c0.2,0,0.6,0.3,0.6,0.7V19h-6L199.1,17.9L199.1,17.9z M208.1,13v1h-5v-1
	c0-0.4,0.4-0.7,0.6-0.7c0,0,1.4,0.1,2.2,0.1c0.9,0,1.9-0.1,1.9-0.1C208.1,12.4,208.1,12.7,208.1,13z M202.1,10.6
	c0-0.4,0.4-0.7,0.6-0.7c0,0,1.3,0.1,2.2,0.1s1.9-0.1,1.9-0.1c0.2,0,0.3,0.3,0.3,0.7V12h-5V10.6z M202.1,13.1V14h-5v-0.9
	c0-0.4,0.5-0.7,0.7-0.7c0,0,1.4,0.1,2.3,0.1s1.9-0.1,1.9-0.1C202.2,12.4,202.1,12.7,202.1,13.1z M196.1,10.7c0-0.4,0.4-0.7,0.6-0.7
	c0,0,1.4,0.1,2.3,0.1c0.9,0,1.9-0.1,1.9-0.1c0.2,0,0.2,0.3,0.2,0.7V12h-5V10.7z M190.1,10.7c0-0.4,0.5-0.7,0.7-0.7
	c0,0,1.4,0.1,2.3,0.1s1.8-0.1,1.8-0.1c0.2,0,0.2,0.3,0.2,0.7V12h-5V10.7z M184.1,10.7c0-0.4,0.5-0.7,0.7-0.7c0,0,1.4,0.1,2.3,0.1
	s2.3-0.1,2.3-0.1c0.2,0,0.7,0.3,0.7,0.7V12h-6V10.7z M186.1,13.1c0-0.4,0.1-0.7,0.3-0.7c0,0,1.2,0.1,2,0.1c0.9,0,2.2-0.1,2.2-0.1
	c0.2,0,0.5,0.3,0.5,0.7V14h-5V13.1z M187.1,15.5c0-0.4,0.1-0.7,0.3-0.7c0,0,1.2,0.1,2.1,0.1s2.1-0.1,2.1-0.1c0.2,0,0.5,0.3,0.5,0.7
	V17h-5C187.1,17,187.1,15.5,187.1,15.5z M188.1,17.9c0-0.4,0.2-0.7,0.4-0.7c0,0,1.2,0.1,2.1,0.1s2.1-0.1,2.1-0.1
	c0.2,0,0.4,0.3,0.4,0.7V19h-5V17.9z M200.1,23h-12v-2.9c0-0.4,0.7-0.7,1.2-0.7c0,0,2.9,0.1,4.9,0.1s4.9-0.1,4.9-0.1
	c0.5,0,1,0.3,1,0.7L200.1,23L200.1,23z M205.1,23h-4v-2.9c0-0.4,0.1-0.7,0.3-0.7c0,0,1.1,0.1,2,0.1s1.7-0.1,1.7-0.1
	c0.2,0,0,0.3,0,0.7V23z M205.1,17.8c0-0.4,0.5-0.7,0.7-0.7c0,0,1.4,0.1,2.2,0.1c0.9,0,2.4-0.1,2.4-0.1c0.2,0,0.6,0.3,0.6,0.7V19h-6
	v-1.2H205.1z M211.1,20.1V23h-4v-2.9c0-0.4,0-0.7,0.3-0.7c0,0,1.1,0.1,1.9,0.1c0.9,0,1.8-0.1,1.8-0.1S211.1,19.7,211.1,20.1z"/>
<path opacity="0.16" fill="#ED2E7A" enable-background="new    " d="M136.1,27v1h77.8c1.1,0,2,0,2.1-1H136.1z"/>
<path opacity="8.000000e-002" fill="#219E97" enable-background="new    " d="M140.7,37h-4.6v60h3.9c0.9,0,1.7-0.8,1.7-1.7l0.7-56.4
	C142.4,37.9,141.6,37,140.7,37z"/>
<path opacity="8.000000e-002" fill="#219E97" enable-background="new    " d="M142.2,36h-6.1v1h4.6c1.1,0,1.9,1,1.9,2.1l-0.7,56
	c0,1.1-0.9,1.9-1.9,1.9h-3.9v2h5.4c1,0,1.9-0.8,1.9-1.9l0.7-59.5C144.1,36.6,143.2,36,142.2,36z"/>
<path opacity="8.000000e-002" fill="#219E97" enable-background="new    " d="M160.8,113.3l-5.2-11.3h-0.7l-0.9-1.8
	c-0.2-0.1-0.4-0.2-0.6-0.2h-0.3l1,2h-1.3l-0.9-2H151l0.9,2h-1.3l-0.9-2h-0.9l0.9,2h-1.3l-0.9-2h-0.9l0.8,2h-1.3l-0.8-2h-0.7l0.8,2
	h-1.2l-0.8-2h-0.9l0.8,2H142l-0.7-2h-0.9l0.7,2h-1.2l-0.7-2h-0.9l0.7,2h-1.2l-0.7-2h-0.9l0.6,2h-0.7v16.1c0.1,0,0.2,0,0.4,0
	c1,0,2.3-0.1,2.3-0.1c0.2,0,0.4,0.3,0.4,0.7v2.3h-3.1v2.4c0.5,0,0.7-0.1,0.7-0.1c0.2,0,0.3,0.3,0.3,0.7v1h-1v4.2c0.2,0,1,0.3,1,0.7
	v1.1h-1v1h0.3c0.2,0,0.7,0.3,0.7,0.7v1.3h-1v1.2c3.8-0.1,7.1-0.2,7.1-0.2c1.5,0,1.9,0.3,1.9,0.7v2.3h-9v5h27c1.2,0,2.1-0.9,2.3-2
	C165.4,141,160.9,113.6,160.8,113.3z M161.1,126.7v1.3h-7v-1.3c0-0.4,0.1-0.7,0.4-0.7c0,0,1.6,0.1,2.9,0.1s3-0.1,3-0.1
	C160.8,126.1,161.1,126.4,161.1,126.7z M161.1,123.8v1.2h-6v-1.2c0-0.4,0.4-0.7,0.6-0.7c0,0,1.3,0.1,2.2,0.1s2.4-0.1,2.4-0.1
	C160.6,123.1,161.1,123.4,161.1,123.8z M154.1,118.7c0-0.4,0.1-0.7,0.3-0.7c0,0,1.3,0.1,2.3,0.1s2.6-0.1,2.6-0.1
	c0.2,0,0.7,0.3,0.7,0.7v2.3h-6L154.1,118.7L154.1,118.7z M152.1,123.3c0.9,0,2.3-0.1,2.3-0.1c0.2,0,0.6,0.3,0.6,0.7v1.2h-5v-1.2
	c0-0.4-0.1-0.7,0.1-0.7C150.2,123.1,151.2,123.3,152.1,123.3z M148.1,126.7c0-0.4,0.1-0.7,0.4-0.7c0,0,1.2,0.1,2.1,0.1
	s2.1-0.1,2.1-0.1c0.2,0,0.4,0.3,0.4,0.7v1.3h-5V126.7z M144.1,125v-1.2c0-0.4,0.1-0.7,0.3-0.7c0,0,1.2,0.1,2.1,0.1
	c0.9,0,2.1-0.1,2.1-0.1c0.2,0,0.5,0.3,0.5,0.7v1.2H144.1z M149.1,129.7c0-0.4,0-0.7,0.2-0.7c0,0,1.1,0.1,2,0.1s2.2-0.1,2.2-0.1
	c0.2,0,0.6,0.3,0.6,0.7v1.3h-5V129.7z M146.1,118.7c0-0.4,0.1-0.7,0.4-0.7c0,0,1.3,0.1,2.3,0.1s2.6-0.1,2.6-0.1
	c0.2,0,0.7,0.3,0.7,0.7v2.3h-6V118.7z M140.1,118.7c0-0.4,0-0.7,0.3-0.7c0,0,1.3,0.1,2.3,0.1s2.2-0.1,2.2-0.1c0.2,0,0.3,0.3,0.3,0.7
	v2.3h-5.1V118.7z M138.1,123.8c0-0.4,0.2-0.7,0.4-0.7c0,0,1.2,0.1,2.1,0.1s2.1-0.1,2.1-0.1c0.2,0,0.4,0.3,0.4,0.7v1.2h-5V123.8z
	 M137.1,126.7c0-0.4-0.2-0.7,0.1-0.7c0,0,1,0.1,1.9,0.1s2.3-0.1,2.3-0.1c0.2,0,0.6,0.3,0.6,0.7v1.3h-4.9L137.1,126.7L137.1,126.7z
	 M137.1,129.7c0-0.4,0.2-0.7,0.4-0.7c0,0,1.2,0.1,2.1,0.1s2.1-0.1,2.1-0.1c0.2,0,0.4,0.3,0.4,0.7v1.3h-5V129.7z M143.1,134h-6v-1.3
	c0-0.4,0.3-0.7,0.6-0.7c0,0,1.3,0.1,2.2,0.1s2.5-0.1,2.5-0.1c0.2,0,0.8,0.3,0.8,0.7v1.3H143.1z M142.1,128v-1.3
	c0-0.4,0.3-0.7,0.5-0.7c0,0,1.3,0.1,2.2,0.1s2-0.1,2-0.1c0.2,0,0.3,0.3,0.3,0.7v1.3H142.1z M143.1,129.7c0-0.4,0.1-0.7,0.3-0.7
	c0,0,1.2,0.1,2.1,0.1c0.9,0,2.1-0.1,2.1-0.1c0.2,0,0.4,0.3,0.4,0.7v1.3h-4.9L143.1,129.7L143.1,129.7z M143.1,134v-1.3
	c0-0.4,0.2-0.7,0.5-0.7c0,0,1.2,0.1,2.1,0.1c0.9,0,2.1-0.1,2.1-0.1c0.2,0,0.4,0.3,0.4,0.7v1.3H143.1z M154.1,138h-9v-2.3
	c0-0.4,0.4-0.7,0.8-0.7c0,0,2.1,0.1,3.5,0.1c1.5,0,3.7-0.1,3.7-0.1c0.4,0,1,0.3,1,0.7V138z M154.1,134h-5v-1.3
	c0-0.4,0.2-0.7,0.4-0.7c0,0,1.2,0.1,2.1,0.1s2.1-0.1,2.1-0.1c0.2,0,0.4,0.3,0.4,0.7V134z M154.1,129.7c0-0.4,0.4-0.7,0.7-0.7
	c0,0,1.8,0.1,3.1,0.1s3.3-0.1,3.3-0.1c0.3,0,0.9,0.3,0.9,0.7v1.3h-8V129.7z M162.1,134h-7v-1.3c0-0.4,0.1-0.7,0.5-0.7
	c0,0,1.7,0.1,3,0.1s3-0.1,3-0.1c0.3,0,0.6,0.3,0.6,0.7v1.3H162.1z"/>
<g>
	<path opacity="8.000000e-002" fill="#ED2E7A" enable-background="new    " d="M147,228.9c-1.3-2.6-3.9-4.6-7-5.2l-4-0.8v32.6
		l17.1-6.2c1.9-0.7,2.7-2.7,1.9-4.4L147,228.9z"/>
	<rect x="136.1" y="199" opacity="8.000000e-002" fill="#ED2E7A" enable-background="new    " width="321" height="22"/>
</g>
<path opacity="8.000000e-002" fill="#ED2E7A" enable-background="new    " d="M455,140h1.1v-31h-320v24h6c0.3,0,0.5-0.2,0.5,0l1,5
	h-7.5v2h3.8c0.3,0,0.5,0.3,0.5,0.5l1,5.5h-5.3v2h0.2c0.3,0,0.5,0.3,0.5,0.5l1,5.5h-1.7v12.9v0.1l0,0v31h320v-30h-1l1-7.3V152h-3.2
	l1.5-11C454.4,140.6,454.7,140,455,140z M415.9,132.5c0.1-0.2,0.4-0.5,0.9-0.5h18c0.4,0,0.8,0.3,0.9,0.5l1.5,5.5h-23.4L415.9,132.5z
	 M366.1,140.5c0-0.2,0.3-0.5,0.5-0.5h11.1c0.3,0,0.5,0.3,0.5,0.5l0.9,5.5h-14.3L366.1,140.5z M360.9,138l1.3-5.5
	c0-0.2,0.3-0.5,0.5-0.5h11.2c0.3,0,0.5,0.3,0.5,0.5l1,5.5H360.9z M378.8,138l1.3-5.5c0-0.2,0.3-0.5,0.5-0.5h11.2
	c0.3,0,0.5,0.3,0.5,0.5l1,5.5H378.8z M365.5,148c0.3,0,0.5,0.3,0.5,0.5l1,5.5h-14.6l1.3-5.5c0-0.2,0.3-0.5,0.5-0.5H365.5z
	 M367.3,156.5c0-0.2,0.3-0.5,0.5-0.5H379c0.3,0,0.5,0.3,0.5,0.5l1,5.5h-14.6L367.3,156.5z M370.4,154l1.3-5.5c0-0.2,0.3-0.5,0.5-0.5
	h11.2c0.3,0,0.5,0.3,0.5,0.5l1,5.5H370.4z M382.5,146l1.3-5.5c0-0.2,0.3-0.5,0.5-0.5h11.1c0.3,0,0.5,0.3,0.5,0.5l0.9,5.5H382.5z
	 M391.4,148.5c0.1-0.2,0.7-0.5,1.3-0.5h26.9c0.7,0,1.2,0.3,1.3,0.5l2.3,5.5h-34.9L391.4,148.5z M400.1,146l2.1-5.5
	c0.1-0.2,0.4-0.5,0.9-0.5h18c0.4,0,0.8,0.3,0.9,0.5l1.5,5.5H400.1z M410.3,132.5l1,5.5h-14.6l1.3-5.5c0-0.2,0.3-0.5,0.5-0.5h11.2
	C410.1,132,410.3,132.3,410.3,132.5z M388.1,124.5c0.1-0.2,0.4-0.5,0.9-0.5h18c0.4,0,0.8,0.3,0.9,0.5l1.5,5.5h-23.3L388.1,124.5z
	 M362.2,124.5c0.1-0.2,0.4-0.5,0.9-0.5h18c0.4,0,0.8,0.3,0.9,0.5l1.5,5.5h-23.4L362.2,124.5z M360.6,140.5l0.9,5.5h-14.4l1.3-5.5
	c0-0.2,0.3-0.5,0.5-0.5H360C360.3,140,360.5,140.3,360.6,140.5z M223.6,146l1.3-5.5c0-0.2,0.3-0.5,0.5-0.5h11.1
	c0.3,0,0.5,0.3,0.5,0.5l0.9,5.5H223.6z M223.6,154h-14.5l1.3-5.5c0-0.2,0.3-0.5,0.5-0.5h11.2c0.3,0,0.5,0.3,0.5,0.5L223.6,154z
	 M234.5,138l1.3-5.5c0-0.2,0.3-0.5,0.5-0.5h11.2c0.3,0,0.5,0.3,0.5,0.5l1,5.5H234.5z M228.3,148.5c0-0.2,0.3-0.5,0.5-0.5H240
	c0.3,0,0.5,0.3,0.5,0.5l1,5.5H227L228.3,148.5z M241.3,146l1.3-5.5c0-0.2,0.3-0.5,0.5-0.5h11c0.3,0,0.5,0.3,0.5,0.5l0.9,5.5H241.3z
	 M246.2,148.5c0-0.2,0.3-0.5,0.5-0.5h11.2c0.3,0,0.5,0.3,0.5,0.5l1,5.5h-14.6L246.2,148.5z M289.4,140c0.3,0,0.5,0.3,0.5,0.5
	l0.9,5.5h-14.3l1.3-5.5c0-0.2,0.3-0.5,0.5-0.5H289.4z M288.3,138l1.3-5.5c0-0.2,0.3-0.5,0.5-0.5h11.2c0.3,0,0.5,0.3,0.5,0.5l1,5.5
	H288.3z M270.4,138l1.3-5.5c0-0.2,0.3-0.5,0.5-0.5h11.2c0.3,0,0.5,0.3,0.5,0.5l1,5.5H270.4z M271.8,140c0.3,0,0.5,0.3,0.5,0.5
	l0.9,5.5h-14.4l1.3-5.5c0-0.2,0.3-0.5,0.5-0.5H271.8z M259.7,156.5c0-0.2,0.3-0.5,0.5-0.5h11.2c0.3,0,0.5,0.3,0.5,0.5l1,5.5h-14.6
	L259.7,156.5z M262.8,154l1.3-5.5c0-0.2,0.3-0.5,0.5-0.5h11.2c0.3,0,0.5,0.3,0.5,0.5l1,5.5H262.8z M277.7,156.5
	c0-0.2,0.3-0.5,0.5-0.5h11.2c0.3,0,0.5,0.3,0.5,0.5l1,5.5h-14.6L277.7,156.5z M280.8,154l1.3-5.5c0-0.2,0.3-0.5,0.5-0.5h11.2
	c0.3,0,0.5,0.3,0.5,0.5l1,5.5H280.8z M294.2,146l1.3-5.5c0-0.2,0.3-0.5,0.5-0.5h11.1c0.3,0,0.5,0.3,0.5,0.5l0.9,5.5H294.2z
	 M300,148.5c0-0.2,0.3-0.5,0.5-0.5h11.2c0.3,0,0.5,0.3,0.5,0.5l1,5.5h-14.6L300,148.5z M342.4,140c0.3,0,0.5,0.3,0.5,0.5l0.9,5.5
	h-14.4l1.3-5.5c0-0.2,0.3-0.5,0.5-0.5H342.4z M342.1,138l1.3-5.5c0-0.2,0.3-0.5,0.5-0.5h11.2c0.3,0,0.5,0.3,0.5,0.5l1,5.5H342.1z
	 M324.1,138l1.3-5.5c0-0.2,0.3-0.5,0.5-0.5h11.2c0.3,0,0.5,0.3,0.5,0.5l1,5.5H324.1z M324.7,140c0.3,0,0.5,0.3,0.5,0.5l0.9,5.5
	h-14.4l1.3-5.5c0-0.2,0.3-0.5,0.5-0.5H324.7z M313.5,156.5c0-0.2,0.3-0.5,0.5-0.5h11.2c0.3,0,0.5,0.3,0.5,0.5l1,5.5h-14.6
	L313.5,156.5z M316.6,154l1.3-5.5c0-0.2,0.3-0.5,0.5-0.5h11.2c0.3,0,0.5,0.3,0.5,0.5l1,5.5H316.6z M331.4,156.5
	c0-0.2,0.3-0.5,0.5-0.5h11.2c0.3,0,0.5,0.3,0.5,0.5l1,5.5h-14.5L331.4,156.5z M334.5,154l1.3-5.5c0-0.2,0.3-0.5,0.5-0.5h11.2
	c0.3,0,0.5,0.3,0.5,0.5l1,5.5H334.5z M336.3,124.5c0.1-0.2,0.4-0.5,0.9-0.5h18c0.4,0,0.8,0.3,0.9,0.5l1.5,5.5h-23.4L336.3,124.5z
	 M310.5,124.5c0.1-0.2,0.4-0.5,0.9-0.5h18c0.4,0,0.8,0.3,0.9,0.5l1.5,5.5h-23.4L310.5,124.5z M307.5,132.5c0-0.2,0.3-0.5,0.5-0.5
	h11.2c0.3,0,0.5,0.3,0.5,0.5l1,5.5h-14.6L307.5,132.5z M284.6,124.5c0.1-0.2,0.4-0.5,0.9-0.5h18c0.4,0,0.8,0.3,0.9,0.5l1.5,5.5
	h-23.4L284.6,124.5z M258.7,124.5c0.1-0.2,0.4-0.5,0.9-0.5h18c0.4,0,0.8,0.3,0.9,0.5l1.5,5.5h-23.4L258.7,124.5z M265.5,132
	c0.3,0,0.5,0.3,0.5,0.5l1,5.5h-14.6l1.3-5.5c0-0.2,0.3-0.5,0.5-0.5H265.5z M232.8,124.5c0.1-0.2,0.4-0.5,0.9-0.5h18
	c0.4,0,0.8,0.3,0.9,0.5l1.5,5.5h-23.4L232.8,124.5z M230.2,132.5l1,5.5h-14.6l1.3-5.5c0-0.2,0.3-0.5,0.5-0.5h11.2
	C229.9,132,230.2,132.3,230.2,132.5z M206.9,124.5c0.1-0.2,0.4-0.5,0.9-0.5h18c0.4,0,0.8,0.3,0.9,0.5l1.5,5.5h-23.4L206.9,124.5z
	 M200,132.5c0-0.2,0.3-0.5,0.5-0.5h11.2c0.3,0,0.5,0.3,0.5,0.5l1,5.5h-14.5L200,132.5z M199,140.5c0.1-0.2,0.4-0.5,0.9-0.5h18
	c0.4,0,0.8,0.3,0.9,0.5l1.5,5.5h-23.4L199,140.5z M182.1,132.5c0-0.2,0.3-0.5,0.5-0.5h11.2c0.3,0,0.5,0.3,0.5,0.5l1,5.5h-14.5
	L182.1,132.5z M180.5,140.5c0-0.2,0.3-0.5,0.5-0.5h11.1c0.3,0,0.5,0.3,0.5,0.5l0.9,5.5h-14.2L180.5,140.5z M179.9,148.5
	c0.1-0.2,0.5-0.5,1-0.5h20.4c0.5,0,0.9,0.3,1,0.5l1.8,5.5h-26.5L179.9,148.5z M141.1,167l2.1-11c0.1-0.4,0.5-1,0.9-1h18.3
	c0.5,0,0.8,0.6,0.9,1l1.6,11H141.1z M142.1,154l2.1-5.5c0.1-0.2,0.4-0.5,0.9-0.5h18c0.4,0,0.8,0.3,0.9,0.5l1.5,5.5H142.1z
	 M144.3,146l2.1-5.5c0.1-0.2,0.4-0.5,0.9-0.5h18c0.4,0,0.8,0.3,0.9,0.5l1.5,5.5H144.3z M145.7,138l2.1-5c0.1-0.2,0.4,0,0.9,0h18
	c0.4,0,0.8-0.2,0.9,0l1.5,5H145.7z M177.6,162l1.3-5.5c0-0.2,0.3-0.5,0.5-0.5h11.2c0.3,0,0.5,0.3,0.5,0.5l1,5.5H177.6z M195.5,162
	l2.1-5.5c0.1-0.2,0.5-0.5,0.9-0.5h18.3c0.5,0,0.8,0.3,0.9,0.5l1.6,5.5H195.5z M223.9,156.5c0-0.2,0.3-0.5,0.5-0.5h11.2
	c0.3,0,0.5,0.3,0.5,0.5l1,5.5h-14.5L223.9,156.5z M229.4,176l2.1-11c0.1-0.4,0.5-1,0.9-1h18.3c0.5,0,0.8,0.6,0.9,1l1.6,11H229.4z
	 M240.5,162l1.3-5.5c0-0.2,0.3-0.5,0.5-0.5h11.2c0.3,0,0.5,0.3,0.5,0.5l1,5.5H240.5z M257.3,176l1.8-11c0.2-0.4,0.9-1,1.8-1h42.2
	c0.9,0,1.7,0.6,1.8,1l1.6,11H257.3z M294.3,162l1.3-5.5c0-0.2,0.3-0.5,0.5-0.5h11.2c0.3,0,0.5,0.3,0.5,0.5l1,5.5H294.3z M310.7,176
	l1.8-11c0.2-0.4,0.9-1,1.8-1h42.1c0.9,0,1.7,0.6,1.8,1l1.6,11H310.7z M348.1,162l1.3-5.5c0-0.2,0.3-0.5,0.5-0.5h11.2
	c0.3,0,0.5,0.3,0.5,0.5l1,5.5H348.1z M364,176l2.1-11c0.1-0.4,0.5-1,0.9-1h18.3c0.5,0,0.8,0.6,0.9,1l1.6,11H364z M383.9,162l1.3-5.5
	c0-0.2,0.3-0.5,0.5-0.5h11.2c0.3,0,0.5,0.3,0.5,0.5l1,5.5H383.9z M401.8,162l2.1-5.5c0.1-0.2,0.5-0.5,0.9-0.5h18.3
	c0.5,0,0.8,0.3,0.9,0.5l1.6,5.5H401.8z M428.1,140.5c0-0.2,0.3-0.5,0.5-0.5h11.1c0.3,0,0.5,0.3,0.5,0.5l0.9,5.5h-14.3L428.1,140.5z
	 M429.2,148.5c0-0.2,0.3-0.5,0.5-0.5h11.2c0.3,0,0.5,0.3,0.5,0.5l1,5.5h-14.6L429.2,148.5z M428.9,162l1.3-5.5
	c0-0.2,0.3-0.5,0.5-0.5h11.2c0.3,0,0.5,0.3,0.5,0.5l1,5.5H428.9z"/>
<path opacity="0.1" fill="#ED2E7A" enable-background="new    " d="M460.8,187.3c0-0.3-10.5-31-10.5-31l-9.2-14.1
	c-0.4-1-1.4-1.3-2.5-1.3h-37.7c2.7-3,4.4-6.4,4.4-10.3l4.5-103.1c0-7.3-5.8-12.6-12.9-12.6H260.4c-7.1,0-12.9,5.6-12.9,12.8
	l4.5,102.4c0,4,1.8,7.7,4.5,10.7h-34.1c-1,0-2,0.1-2.4,1.1l-11.3,15.4l-2,5.6c-2.4-0.1-7.4,0.1-9.8,3c-1.3,1.6-1.6,3.6-0.9,6.1
	c0.4,1.3,0.1,2.4-0.6,3.2c-2.8,3.1-12.3,2.6-17.3,1.9v-4.6l-11.2,4.8h-0.2v0.1l-0.1,0.1h-0.1l0,0l0,0l0,0h0.1l0,0l-16.5,21.7
	l-14-2.7v5l16.4,2.8c0.4,0.1,0.9-0.1,1.2-0.3l23.9-21.5c0.3-0.3,0.5-0.7,0.5-1.1V179c2,0.2,4.3,0.5,7.3,0.5c4.4,0,9-0.6,11.1-3
	c1.1-1.3,1.5-2.9,0.9-4.8c-0.5-2-0.3-3.5,0.6-4.6c1.7-2,5.5-2.4,8-2.4l-8.2,23.2c-0.1,0.2-0.2,0.6-0.2,0.8c-0.3,1.1-0.5,2.3-0.5,3.1
	v0.3h3.2h256.6h4.2v-0.2C461.1,190.7,461.1,188.8,460.8,187.3z M235.1,162.7c0-0.7,0.4-1.2,0.8-1.2c0,0,2.2,0.2,3.9,0.2
	c1.6,0,4.2-0.2,4.2-0.2c0.4,0,1.2,0.5,1.2,1.2v2.3h-10.1L235.1,162.7L235.1,162.7z M220.1,174v-2.3c0-0.7,0.3-1.2,0.7-1.2
	c0,0,2.2,0.2,3.8,0.2s4.3-0.2,4.3-0.2c0.4,0,1.2,0.5,1.2,1.2v2.3H220.1z M228.1,176.2v1.8h-10v-1.8c0-0.7,0.3-1.2,0.7-1.2
	c0,0,2.2,0.2,3.8,0.2s4.3-0.2,4.3-0.2C227.3,174.9,228.1,175.5,228.1,176.2z M229.1,176.2c0-0.7,0.3-1.2,0.7-1.2
	c0,0,2.2,0.2,3.8,0.2s3.8-0.2,3.8-0.2c0.4,0,0.7,0.5,0.7,1.2v1.8h-9V176.2z M231.1,174v-2.3c0-0.7,0.3-1.2,0.7-1.2
	c0,0,2.2,0.2,3.8,0.2s4.3-0.2,4.3-0.2c0.4,0,1.2,0.5,1.2,1.2v2.3H231.1z M233.1,170v-2.8c0-0.7,0.3-1.2,0.7-1.2c0,0,2.2,0.2,3.8,0.2
	s4.2-0.2,4.2-0.2c0.4,0,1.2,0.5,1.2,1.2v2.8H233.1z M224.1,162.7c0-0.7,0.4-1.2,0.8-1.2c0,0,2.2,0.2,3.9,0.2c1.6,0,4.2-0.2,4.2-0.2
	c0.4,0,1.1,0.5,1.1,1.2v2.3h-10V162.7z M226.8,166.2c1.6,0,4.2-0.2,4.2-0.2c0.4,0,1.1,0.5,1.1,1.2v2.8h-10v-2.8
	c0-0.7,0.3-1.2,0.8-1.2C222.9,166,225.2,166.2,226.8,166.2z M213.1,162.7c0-0.7,0.4-1.2,0.8-1.2c0,0,2.2,0.2,3.9,0.2
	s4.2-0.2,4.2-0.2c0.4,0,1.1,0.5,1.1,1.2v2.3h-10V162.7z M211.1,167.2c0-0.7,0.4-1.2,0.8-1.2c0,0,2.2,0.2,3.9,0.2s4.2-0.2,4.2-0.2
	c0.4,0,1.1,0.5,1.1,1.2v2.8h-10V167.2z M209.1,171.6c0-0.7,0.3-1.2,0.7-1.2c0,0,2.2,0.2,3.8,0.2s4.2-0.2,4.2-0.2
	c0.4,0,1.2,0.5,1.2,1.2v2.4h-9.9V171.6z M207.1,176.1c0-0.7,0.3-1.2,0.7-1.2c0,0,2.3,0.2,4,0.2c1.6,0,4.2-0.2,4.2-0.2
	c0.4,0,1.2,0.5,1.2,1.2v1.9h-10.1L207.1,176.1L207.1,176.1z M215.1,185h-9v-4.6c0-0.7-0.2-1.2,0.2-1.2c0,0,2.1,0.2,3.7,0.2
	s4-0.2,4-0.2c0.4,0,1.1,0.5,1.1,1.2V185z M226.1,185h-9v-4.6c0-0.7-0.1-1.2,0.3-1.2c0,0,2,0.2,3.6,0.2s4.1-0.2,4.1-0.2
	c0.4,0,1,0.5,1,1.2L226.1,185L226.1,185z M248.1,185h-21v-4.6c0-0.7,0.8-1.2,1.7-1.2c0,0,5.1,0.2,8.8,0.2s8.8-0.2,8.8-0.2
	c0.9,0,1.7,0.5,1.7,1.2V185z M250.1,178h-10v-1.8c0-0.7,0.4-1.2,0.8-1.2c0,0,2.2,0.2,3.9,0.2c1.6,0,4.2-0.2,4.2-0.2
	c0.4,0,1.2,0.5,1.2,1.2L250.1,178L250.1,178z M252.1,174h-10v-2.3c0-0.7,0.4-1.2,0.8-1.2c0,0,2.2,0.2,3.9,0.2s4.2-0.2,4.2-0.2
	c0.4,0,1.1,0.5,1.1,1.2V174z M254.1,170h-10v-2.8c0-0.7,0.4-1.2,0.8-1.2c0,0,2.2,0.2,3.9,0.2c1.6,0,4.2-0.2,4.2-0.2
	c0.4,0,1.1,0.5,1.1,1.2V170z M256.1,165h-10v-2.3c0-0.7,0.4-1.2,0.9-1.2c0,0,2.3,0.2,3.9,0.2s4.2-0.2,4.2-0.2c0.4,0,1.1,0.5,1.1,1.2
	L256.1,165L256.1,165z M448.1,171.1v2.9h-13v-2.9c0-0.7,0.4-1.2,1-1.2c0,0,3.1,0.2,5.4,0.2s5.5-0.2,5.5-0.2
	C447.6,169.8,448.1,170.4,448.1,171.1z M436.1,162.7c0-0.7,0.3-1.2,0.7-1.2c0,0,2.2,0.2,3.8,0.2s4.3-0.2,4.3-0.2
	c0.4,0,1.2,0.5,1.2,1.2v2.3h-10V162.7z M440.3,165.9c2.3,0,5.6-0.2,5.6-0.2c0.6,0,1.2,0.5,1.2,1.2v2.1h-13v-2.1
	c0-0.7,0.3-1.2,0.8-1.2C434.9,165.7,438,165.9,440.3,165.9z M425.1,162.7c0-0.7,0.4-1.2,0.8-1.2c0,0,2.2,0.2,3.9,0.2
	c1.6,0,4.2-0.2,4.2-0.2c0.4,0,1.1,0.5,1.1,1.2v2.3h-10V162.7z M338.1,166.9c0-0.7,0.3-1.2,0.8-1.2c0,0,2.2,0.2,3.8,0.2
	c1.6,0,4.2-0.2,4.2-0.2c0.4,0,1.2,0.5,1.2,1.2v2.1h-10C338.1,169,338.1,166.9,338.1,166.9z M330.1,165v-2.3c0-0.7,0-1.2,0.4-1.2
	c0,0,2,0.2,3.7,0.2c1.6,0,4-0.2,4-0.2c0.4,0,0.9,0.5,0.9,1.2v2.3H330.1z M340.1,165v-2.3c0-0.7,0.4-1.2,0.8-1.2c0,0,2.2,0.2,3.9,0.2
	c1.6,0,4.2-0.2,4.2-0.2c0.4,0,1.1,0.5,1.1,1.2v2.3H340.1z M340.1,171.1c0-0.7,0-1.2,0.4-1.2c0,0,2,0.2,3.7,0.2s4-0.2,4-0.2
	c0.4,0,0.9,0.5,0.9,1.2v2.9h-9V171.1L340.1,171.1z M341.1,175.6c0-0.7,0.2-1.2,0.6-1.2c0,0,2.1,0.2,3.8,0.2c1.7,0,3.9-0.2,3.9-0.2
	c0.4,0,0.8,0.5,0.8,1.2v2.4h-9L341.1,175.6L341.1,175.6z M349.1,169v-2.1c0-0.7,0-1.2,0.4-1.2c0,0,2.2,0.2,3.9,0.2
	c1.6,0,3.8-0.2,3.8-0.2c0.4,0,0.9,0.5,0.9,1.2v2.1H349.1z M351.1,165v-2.3c0-0.7,0.1-1.2,0.5-1.2c0,0,2.1,0.2,3.7,0.2
	s3.9-0.2,3.9-0.2c0.4,0,0.8,0.5,0.8,1.2v2.3H351.1z M350.1,171.1c0-0.7,0.2-1.2,0.6-1.2c0,0,2.1,0.2,3.8,0.2c1.6,0,3.8-0.2,3.8-0.2
	c0.4,0,0.8,0.5,0.8,1.2v2.9h-9L350.1,171.1L350.1,171.1z M351.1,175.6c0-0.7,0.4-1.2,0.9-1.2c0,0,2.3,0.2,3.9,0.2s4.2-0.2,4.2-0.2
	c0.4,0,1.1,0.5,1.1,1.2v2.4h-10L351.1,175.6L351.1,175.6z M359.1,169v-1.7c0-0.7,0.4-1.2,0.8-1.2c0,0,2.4,0.2,4,0.2s4.1-0.2,4.1-0.2
	c0.4,0,1.1,0.5,1.1,1.2v1.7H359.1z M361.1,165v-2c0-0.7,0.4-1.2,0.8-1.2c0,0,2.2,0.2,3.9,0.2c1.6,0,4.2-0.2,4.2-0.2
	c0.4,0,1.1,0.5,1.1,1.2v2H361.1z M361.1,171.4c0-0.7,0-1.2,0.4-1.2c0,0,2,0.2,3.7,0.2c1.6,0,4-0.2,4-0.2c0.4,0,0.9,0.5,0.9,1.2v2.6
	h-9V171.4L361.1,171.4z M362.1,175.5c0-0.7,0.1-1.2,0.5-1.2c0,0,2.1,0.2,3.7,0.2s3.9-0.2,3.9-0.2c0.4,0,0.9,0.5,0.9,1.2v2.5h-9
	V175.5L362.1,175.5z M370.1,169v-1.7c0-0.7,0.2-1.2,0.6-1.2c0,0,2.3,0.2,4,0.2s4.2-0.2,4.2-0.2c0.4,0,1.2,0.5,1.2,1.2v1.7H370.1z
	 M372.1,165v-2c0-0.7,0.3-1.2,0.7-1.2c0,0,2.2,0.2,3.8,0.2s4.3-0.2,4.3-0.2c0.4,0,1.2,0.5,1.2,1.2v2H372.1z M371.1,171.4
	c0-0.7,0.4-1.2,0.8-1.2c0,0,2.2,0.2,3.9,0.2c1.6,0,4.2-0.2,4.2-0.2c0.4,0,1.1,0.5,1.1,1.2v2.6h-10V171.4z M373.1,175.5
	c0-0.7,0.1-1.2,0.5-1.2c0,0,2.1,0.2,3.7,0.2s3.9-0.2,3.9-0.2c0.4,0,0.9,0.5,0.9,1.2v2.5h-9V175.5L373.1,175.5z M381.1,169v-1.7
	c0-0.7,0-1.2,0.4-1.2c0,0,2.2,0.2,3.9,0.2c1.6,0,3.8-0.2,3.8-0.2c0.4,0,0.9,0.5,0.9,1.2v1.7H381.1z M382.1,171.4
	c0-0.7,0.2-1.2,0.6-1.2c0,0,2.1,0.2,3.8,0.2c1.6,0,3.8-0.2,3.8-0.2c0.4,0,0.8,0.5,0.8,1.2v2.6h-9L382.1,171.4L382.1,171.4z
	 M383.1,175.5c0-0.7,0.4-1.2,0.8-1.2c0,0,2.2,0.2,3.9,0.2c1.6,0,4.2-0.2,4.2-0.2c0.4,0,1.1,0.5,1.1,1.2v2.5h-10V175.5z M391.1,169
	v-1.7c0-0.7,0.4-1.2,0.8-1.2c0,0,2.4,0.2,4,0.2s4.1-0.2,4.1-0.2c0.4,0,1.1,0.5,1.1,1.2v1.7H391.1z M393.1,171.4
	c0-0.7,0.1-1.2,0.5-1.2c0,0,2.1,0.2,3.7,0.2s4-0.2,4-0.2c0.4,0,0.9,0.5,0.9,1.2v2.6h-9v-2.6H393.1z M394.1,175.5
	c0-0.7,0.1-1.2,0.6-1.2c0,0,2.1,0.2,3.7,0.2s3.9-0.2,3.9-0.2c0.4,0,0.8,0.5,0.8,1.2v2.5h-9V175.5z M402.1,169v-2.1
	c0-0.7,0.3-1.2,0.7-1.2c0,0,2.2,0.2,3.8,0.2s4.3-0.2,4.3-0.2c0.4,0,1.2,0.5,1.2,1.2v2.1H402.1z M403.1,171.1c0-0.7,0.4-1.2,0.8-1.2
	c0,0,2.2,0.2,3.9,0.2c1.7,0,4.2-0.2,4.2-0.2c0.4,0,1.1,0.5,1.1,1.2v2.9h-10V171.1z M405.1,175.6c0-0.7,0.1-1.2,0.5-1.2
	c0,0,2.1,0.2,3.7,0.2s3.9-0.2,3.9-0.2c0.4,0,0.8,0.5,0.8,1.2v2.4h-9v-2.4H405.1z M413.1,169v-2.1c0-0.7,0.1-1.2,0.5-1.2
	c0,0,2.1,0.2,3.7,0.2s3.9-0.2,3.9-0.2c0.4,0,0.8,0.5,0.8,1.2v2.1H413.1z M414.1,171.1c0-0.7,0.2-1.2,0.6-1.2c0,0,2.2,0.2,3.8,0.2
	s3.8-0.2,3.8-0.2c0.4,0,0.7,0.5,0.7,1.2v2.9h-9v-2.9H414.1z M415.1,175.6c0-0.7,0.4-1.2,0.8-1.2c0,0,2.2,0.2,3.9,0.2
	c1.6,0,4.2-0.2,4.2-0.2c0.4,0,1.1,0.5,1.1,1.2v2.4h-10V175.6z M423.1,169v-2.1c0-0.7,0.4-1.2,0.8-1.2c0,0,2.2,0.2,3.9,0.2
	c1.6,0,4.2-0.2,4.2-0.2c0.4,0,1.1,0.5,1.1,1.2v2.1H423.1z M424.1,174v-2.9c0-0.7,0.4-1.2,0.8-1.2c0,0,2.2,0.2,3.9,0.2
	c1.7,0,4.2-0.2,4.2-0.2c0.4,0,1.1,0.5,1.1,1.2v2.9H424.1z M415.1,162.7c0-0.7,0.2-1.2,0.6-1.2c0,0,2.1,0.2,3.7,0.2s3.9-0.2,3.9-0.2
	c0.4,0,0.8,0.5,0.8,1.2v2.3h-9V162.7z M404.1,162.7c0-0.7,0.3-1.2,0.7-1.2c0,0,2.2,0.2,3.8,0.2s4.3-0.2,4.3-0.2
	c0.4,0,1.2,0.5,1.2,1.2v2.3h-10V162.7z M394.1,163c0-0.7,0-1.2,0.4-1.2c0,0,2,0.2,3.7,0.2c1.6,0,4-0.2,4-0.2c0.4,0,0.9,0.5,0.9,1.2
	v2h-9V163z M392.1,165h-9v-2c0-0.7,0.1-1.2,0.5-1.2c0,0,2.1,0.2,3.7,0.2s3.9-0.2,3.9-0.2c0.4,0,0.8,0.5,0.8,1.2v2H392.1z M343.6,139
	l-7.5-7h49.7l6.5,7H343.6z M271.1,40.1c0-2.2,2.2-4.1,4.3-4.1h110.7c2.1,0,4,2,4,4.1V125c0,2.2-1.9,4-4,4H275.4
	c-2.1,0-4.3-1.9-4.3-4V40.1z M328.1,162.7v2.3h-9v-2.3c0-0.7,0.1-1.2,0.5-1.2c0,0,2.1,0.2,3.7,0.2s3.9-0.2,3.9-0.2
	C327.7,161.5,328.1,162,328.1,162.7z M288.6,166.1c0,0,2.1,0.2,3.7,0.2s3.9-0.2,3.9-0.2c0.4,0,0.9,0.5,0.9,1.2v2.7h-9v-2.7
	C288.1,166.7,288.2,166.1,288.6,166.1z M288.1,165v-1.9c0-0.7,0-1.2,0.4-1.2c0,0,2,0.2,3.5,0.2c1.6,0,4-0.2,4-0.2c0.4,0,1,0.5,1,1.2
	v1.9H288.1z M281.1,137v1h-2v-1H281.1z M267.1,163.1c0-0.7-0.1-1.2,0.3-1.2c0,0,1.9,0.2,3.5,0.2s4.1-0.2,4.1-0.2
	c0.4,0,1.1,0.5,1.1,1.2v1.9h-9V163.1L267.1,163.1z M274.1,174h-10v-2.4c0-0.7,0.2-1.2,0.6-1.2c0,0,2.3,0.2,4.1,0.2
	c1.8,0,4.3-0.2,4.3-0.2c0.4,0,1,0.5,1,1.2V174L274.1,174z M275.1,170h-9v-2.7c0-0.7,0-1.2,0.4-1.2c0,0,2,0.2,3.7,0.2
	c1.6,0,4-0.2,4-0.2c0.4,0,0.9,0.5,0.9,1.2V170L275.1,170z M286.1,174h-10v-2.4c0-0.7,0.1-1.2,0.6-1.2c0,0,2.3,0.2,4.1,0.2
	c1.8,0,4.3-0.2,4.3-0.2c0.4,0,1,0.5,1,1.2V174L286.1,174z M286.1,170h-10v-2.7c0-0.7,0.5-1.2,0.9-1.2c0,0,2.3,0.2,3.9,0.2
	s4.1-0.2,4.1-0.2c0.4,0,1.1,0.5,1.1,1.2V170z M286.1,165h-9v-1.9c0-0.7,0.1-1.2,0.5-1.2c0,0,2.2,0.2,3.8,0.2c1.6,0,3.8-0.2,3.8-0.2
	c0.4,0,0.9,0.5,0.9,1.2C286.1,163.1,286.1,165,286.1,165z M298.1,174h-10v-2.4c0-0.7,0.2-1.2,0.7-1.2c0,0,2.3,0.2,4.1,0.2
	c1.8,0,4.3-0.2,4.3-0.2c0.4,0,1,0.5,1,1.2v2.4H298.1z M304.1,162.7c0-0.7,0.5-1.2,1.1-1.2c0,0,3.2,0.2,5.5,0.2s5.9-0.2,5.9-0.2
	c0.6,0,1.5,0.5,1.5,1.2v2.3h-14V162.7z M307.1,166.9c0-0.7,0.2-1.2,0.6-1.2c0,0,2.1,0.2,3.8,0.2c1.6,0,3.9-0.2,3.9-0.2
	c0.4,0,0.8,0.5,0.8,1.2v2.1h-9L307.1,166.9L307.1,166.9z M318.1,174h-10v-2.9c0-0.7,0.3-1.2,0.7-1.2c0,0,2.2,0.2,3.8,0.2
	s4.3-0.2,4.3-0.2c0.4,0,1.2,0.5,1.2,1.2V174z M318.1,166.9c0-0.7,0.3-1.2,1.2-1.2c0,0,4.5,0.2,8,0.2s8.2-0.2,8.2-0.2
	c0.9,0,1.6,0.5,1.6,1.2v2.1h-19L318.1,166.9L318.1,166.9z M319.1,171.1c0-0.7,0.4-1.2,1.3-1.2c0,0,4.6,0.2,8,0.2
	c3.5,0,8.1-0.2,8.1-0.2c0.9,0,1.6,0.5,1.6,1.2v2.9h-19V171.1L319.1,171.1z M326.1,175.6c0-0.7,0.5-1.2,1.1-1.2c0,0,3.2,0.2,5.5,0.2
	s5.9-0.2,5.9-0.2c0.6,0,1.5,0.5,1.5,1.2v2.4h-14V175.6z M353.1,185h-16v-5.2c0-0.7,0.7-1.2,1.4-1.2c0,0,3.7,0.2,6.4,0.2
	c2.7,0,6.7-0.2,6.7-0.2c0.7,0,1.6,0.5,1.6,1.2L353.1,185L353.1,185z M418.1,185h-64v-5.2c0-0.7,0.1-1.2,2.9-1.2
	c0,0,17.6,0.6,28.9,0.6s29-0.6,29-0.6c2.8,0,3.2,0.5,3.2,1.2V185z M434.1,185h-14v-5.2c0-0.7,0-1.2,0.7-1.2c0,0,3.3,0.2,6,0.2
	s6.2-0.2,6.2-0.2c0.7,0,1.1,0.5,1.1,1.2L434.1,185L434.1,185z M436.1,178h-10v-2.4c0-0.7,0.3-1.2,0.7-1.2c0,0,2.2,0.2,3.8,0.2
	s4.3-0.2,4.3-0.2c0.4,0,1.2,0.5,1.2,1.2V178z M450.1,178h-13v-2.4c0-0.7,0.2-1.2,0.8-1.2c0,0,3,0.2,5.4,0.2s5.6-0.2,5.6-0.2
	c0.6,0,1.2,0.5,1.2,1.2V178z"/>
<path opacity="0.1" fill="#ED2E7A" enable-background="new    " d="M162.2,174.7c-3.2-0.5-22.7-3.1-24.1-3.3l-2,2.3v22.4l13.8,2.6
	l16.4-21.3C165.9,176.8,164.7,175.1,162.2,174.7z"/>
<path opacity="8.000000e-002" fill="#ED2E7A" enable-background="new    " d="M456.1-185h-29.6l1.8-11c0.2-0.4,0.9-1,1.8-1h26v-2
	h-10.6l1.3-5.5c0-0.2,0.3-0.5,0.5-0.5h8.8v-2h-6.2l1.3-5.5c0-0.2,0.3-0.5,0.5-0.5h4.4v-2h-10.4l1.3-5.5c0-0.2,0.3-0.5,0.5-0.5h8.6
	v-10h-4.5l2.1-5.5c0.1-0.2,0.4-0.5,0.9-0.5h1.5v-13H258c-0.4,0.5-0.7,1.1-0.9,1.7L237.4-180c0,0.1-2,17-2,17h0.2h220.5V-185z
	 M392.7-215l1.3-5.5c0-0.2,0.3-0.5,0.5-0.5h11.1c0.3,0,0.5,0.3,0.5,0.5l1,5.5H392.7z M392.8-207h-14.6l1.3-5.5
	c0-0.2,0.3-0.5,0.5-0.5h11.2c0.3,0,0.5,0.3,0.5,0.5L392.8-207z M403.7-223l1.3-5.5c0-0.2,0.3-0.5,0.5-0.5h11.2
	c0.3,0,0.5,0.3,0.5,0.5l1,5.5H403.7z M397.4-212.5c0-0.2,0.3-0.5,0.5-0.5h11.2c0.3,0,0.5,0.3,0.5,0.5l1,5.5h-14.5L397.4-212.5z
	 M410.4-215l1.3-5.5c0-0.2,0.3-0.5,0.5-0.5h11.1c0.3,0,0.5,0.3,0.5,0.5l0.9,5.5H410.4z M415.3-212.5c0-0.2,0.3-0.5,0.5-0.5h11.3
	c0.3,0,0.5,0.3,0.5,0.5l1,5.5H414L415.3-212.5z M428.1-215l1.3-5.5c0-0.2,0.3-0.5,0.5-0.5H441c0.3,0,0.5,0.3,0.5,0.5l0.9,5.5H428.1z
	 M427.6-199l1.3-5.5c0-0.2,0.3-0.5,0.5-0.5h11.2c0.3,0,0.5,0.3,0.5,0.5l1,5.5H427.6z M446.5-207h-14.6l1.3-5.5
	c0-0.2,0.3-0.5,0.5-0.5h11.2c0.3,0,0.5,0.3,0.5,0.5L446.5-207z M452.6-229c0.3,0,0.5,0.3,0.5,0.5l1,5.5h-14.6l1.3-5.5
	c0-0.2,0.3-0.5,0.5-0.5H452.6z M427.8-236.5c0.1-0.2,0.4-0.5,0.9-0.5h18c0.4,0,0.8,0.3,0.9,0.5l1.5,5.5h-23.4L427.8-236.5z
	 M434.6-229c0.3,0,0.5,0.3,0.5,0.5l1,5.5h-14.6l1.3-5.5c0-0.2,0.3-0.5,0.5-0.5H434.6z M401.9-236.5c0.1-0.2,0.4-0.5,0.9-0.5h18
	c0.4,0,0.8,0.3,0.9,0.5l1.5,5.5h-23.4L401.9-236.5z M399.4-228.5l1,5.5h-14.6l1.3-5.5c0-0.2,0.3-0.5,0.5-0.5h11.2
	C399.1-229,399.3-228.7,399.4-228.5z M376-236.5c0.1-0.2,0.4-0.5,0.9-0.5h18c0.4,0,0.8,0.3,0.9,0.5l1.5,5.5h-23.4L376-236.5z
	 M369.1-228.5c0-0.2,0.3-0.5,0.5-0.5h11.2c0.3,0,0.5,0.3,0.5,0.5l1,5.5h-14.6L369.1-228.5z M368.1-220.5c0.1-0.2,0.4-0.5,0.9-0.5h18
	c0.4,0,0.8,0.3,0.9,0.5l1.5,5.5h-23.3L368.1-220.5z M351.2-228.5c0-0.2,0.3-0.5,0.5-0.5h11.2c0.3,0,0.5,0.3,0.5,0.5l1,5.5h-14.6
	L351.2-228.5z M349.7-220.5c0-0.2,0.3-0.5,0.5-0.5h11.1c0.3,0,0.5,0.3,0.5,0.5l0.9,5.5h-14.4L349.7-220.5z M349.1-212.5
	c0.1-0.2,0.5-0.5,1-0.5h20.4c0.5,0,0.9,0.3,1,0.5l1.8,5.5h-26.5L349.1-212.5z M299.4-228c0-0.2,0.3,0,0.5,0h11.2
	c0.3,0,0.5-0.2,0.5,0l1,5h-14.5L299.4-228z M297.2-220.5c0-0.2,0.3-0.5,0.5-0.5h11.2c0.3,0,0.5,0.3,0.5,0.5l1,5.5h-14.6L297.2-220.5
	z M288.6-194l1.5-11c0.1-0.4,0.3-1,0.6-1h12.8c0.3,0,0.6,0.6,0.6,1l1.1,11H288.6z M292.3-207l1.3-5.5c0-0.2,0.3-0.5,0.5-0.5h11.2
	c0.3,0,0.5,0.3,0.5,0.5l1,5.5H292.3z M310.2-194l2.1-11c0.1-0.4,0.5-1,0.9-1h18.3c0.5,0,0.8,0.6,0.9,1l1.6,11H310.2z M311.2-207
	l2.1-5.5c0.1-0.2,0.4-0.5,0.9-0.5h18c0.4,0,0.8,0.3,0.9,0.5l1.5,5.5H311.2z M313.5-215l2.1-5.5c0.1-0.2,0.4-0.5,0.9-0.5h18
	c0.4,0,0.8,0.3,0.9,0.5l1.5,5.5H313.5z M314.9-223l2.1-5c0.1-0.2,0.4,0,0.9,0h18c0.4,0,0.8-0.2,0.9,0l1.5,5H314.9z M346.7-199
	l1.3-5.5c0-0.2,0.3-0.5,0.5-0.5h11.2c0.3,0,0.5,0.3,0.5,0.5l1,5.5H346.7z M364.7-199l2.1-5.5c0.1-0.2,0.5-0.5,0.9-0.5H386
	c0.5,0,0.8,0.3,0.9,0.5l1.6,5.5H364.7z M393-204.5c0-0.2,0.3-0.5,0.5-0.5h11.2c0.3,0,0.5,0.3,0.5,0.5l1,5.5h-14.6L393-204.5z
	 M398.5-185l2.1-11c0.1-0.4,0.5-1,0.9-1h18.3c0.5,0,0.8,0.6,0.9,1l1.6,11H398.5z M409.7-199l1.3-5.5c0-0.2,0.3-0.5,0.5-0.5h11.2
	c0.3,0,0.5,0.3,0.5,0.5l1,5.5H409.7z"/>
<path opacity="8.000000e-002" fill="#ED2E7A" enable-background="new    " d="M316.2-132c-1.3-2.6-3.9-4.6-7-5.2l-7.7-1.6l-35.6-7.3
	c-0.6-0.1-1.3-0.1-1.9,0.1l-17.4,5.1l-9.9,2.9c-1.1,0.3-1.9,1.1-2.2,2.1l-2.2,7.1c-3.5-2.7-5.4-6-5.2-9.5c0.3-5.2,5.1-9.9,13.7-13.3
	l1.9,3.9c0.8,2,2.2,3.9,4,5.3l17.4-5.1c0.6-0.2,1.3-0.1,1.9,0.1l35.6,7.5h154.5V-162H235.7l3.3,6.8c-10,4.1-15.8,10-16.1,16.7
	c-0.3,5.2,2.8,10.1,8.2,13.6l-1.4,4.6c-0.6,1.7,0.5,3.6,2.4,4.1l58.6,15.4c0.7,0.2,1.5,0.2,2.2-0.1l29.5-10.8
	c1.9-0.7,2.7-2.7,1.9-4.4L316.2-132z"/>
<path fill="#CFD6CF" d="M387.5,263.7h-28.8v-4.1h28.8V263.7z M373.8,273.9h-11.1v-6.6h11.1C373.8,267.3,373.8,273.9,373.8,273.9z
	 M358.2,273.9H339v-6.6h19.2C358.2,267.3,358.2,273.9,358.2,273.9z M338.5,263.7h-11.1v-4.1h11.1V263.7z M333.9,273.9H227.3v-6.6
	h106.6V273.9L333.9,273.9z M222.3,273.9h-17.7v-6.6h17.7V273.9z M202.6,259.6h11.1v4.1h-11.1V259.6z M200.1,246.4h10.6v4.1h-10.6
	V246.4z M199.5,273.9h-10.6v-6.6h10.6V273.9z M175.3,259.6H198v4.1h-22.7V259.6z M176.8,253H199v4.1h-22.2V253z M178.3,246.4H195
	v4.1h-16.7V246.4z M182.4,237.7H193v6.6h-10.6V237.7z M198,237.7h10.6v6.6H198V237.7z M213.7,237.7h10.6v6.6h-10.6V237.7z
	 M216.2,257.1h-10.6V253h10.6V257.1z M226.3,250.5h-10.6v-4.1h10.6V250.5z M229.3,237.7h10.6v6.6h-10.6V237.7z M229.3,263.7h-11.1
	v-4.1h11.1V263.7z M221.3,253h10.6v4.1h-10.6V253z M242.5,250.5h-11.1v-4.1h11.1V250.5z M245,237.7h10.6v6.6H245V237.7z
	 M244.5,263.7h-10.6v-4.1h10.6V263.7z M236.9,253h10.6v4.1h-10.6V253z M258.1,250.5H247v-4.1h11.1V250.5z M260.7,237.7h10.6v6.6
	h-10.6V237.7z M260.2,263.7h-10.6v-4.1h10.6V263.7z M252.6,253h10.6v4.1h-10.6V253z M273.8,250.5h-11.1v-4.1h11.1V250.5z
	 M275.8,263.7h-10.6v-4.1h10.6V263.7z M267.7,253h11.1v4.1h-11.1V253z M276.3,237.7h10.6v6.6h-10.6V237.7z M289.5,250.5h-10.6v-4.1
	h10.6V250.5z M291.5,263.7h-10.6v-4.1h10.6V263.7z M283.4,253h11.1v4.1h-11.1V253z M292,237.7h10.6v6.6H292V237.7z M305.1,250.5
	h-10.6v-4.1h10.6V250.5z M307.1,263.7h-10.6v-4.1h10.6V263.7z M299.1,253h10.6v4.1h-10.6V253z M307.6,237.7h10.6v6.6h-10.6V237.7z
	 M321.3,250.5h-11.1v-4.1h11.1C321.3,246.4,321.3,250.5,321.3,250.5z M322.8,263.7h-11.1v-4.1h11.1V263.7z M314.7,253h10.6v4.1
	h-10.6V253z M323.3,237.7h10.6v6.6h-10.6V237.7z M336.9,250.5h-11.1v-4.1h11.1C336.9,246.4,336.9,250.5,336.9,250.5z M341,257.1
	h-10.6V253H341V257.1z M339,237.7h10.6v6.6H339V237.7z M353.1,250.5H342v-4.1h11.1V250.5z M353.6,263.7H343v-4.1h10.6V263.7z
	 M345,253h10.6v4.1H345V253z M354.6,237.7h10.6v6.6h-10.6V237.7z M367.8,250.5h-11.1v-4.1h11.1V250.5z M370.3,237.7h10.6v6.6h-10.6
	V237.7z M384.4,250.5h-13.1v-4.1h13.1V250.5z M384.9,257.1h-22.7V253h22.7V257.1z M402.8,281.5l-5.2-45.5c-0.2-1.9-2.1-3.4-4.3-3.4
	H171.9c-2.2,0-4,1.4-4.3,3.2l-8.3,45.5c-0.1,0.5-0.1,1,0.1,1.4c-0.1,0.3-0.1,0.6-0.1,0.9l0.7,7h242.1l0.7-7c0-0.3,0-0.6-0.1-0.9
	C402.8,282.3,402.9,281.9,402.8,281.5"/>
<path fill="#CFD6CF" d="M160.2,294.1c0,2.3,1.8,4.3,4.1,4.3h233.4c2.3,0,4.1-2,4.1-4.3l0.3-2.9H160L160.2,294.1z"/>
<path opacity="0.32" fill="#ED2E7A" enable-background="new    " d="M364.7,55c0.5,0,1.4-0.9,1.4-1.5V-77c0-0.5-0.9-1-1.4-1H165.6
	c-0.5,0-0.5,0.5-0.5,1V53.5c0,0.5,0,1.5,0.5,1.5H364.7z"/>
<g>
	<path fill="#CFD6CF" d="M441.1,261.3v-40.9c5,0.6,10,1.9,15,3.7v-2.2c-5-1.8-10-3.1-15-3.6v-1c6-0.8,11-0.4,15,0.6v-4.7
		c-4-0.9-9-1.2-15-0.5V32.8c0-2.2-2.1-3.8-4.3-3.8H281.4c-2.1,0-4.3,1.6-4.3,3.8V232h116.4c2.2,0,4.1,1.4,4.3,3.3l3.4,29.7h35.6
		C439,265,441.1,263.4,441.1,261.3z M297.2,209c-0.5,0.4-1.1,0.5-1.6,0.2c-1-0.5-1.9-0.5-2.9,0c-0.7,0.4-1.4,0.2-2-0.4
		c-1-1-1.6-2.2-2-3.5c-0.3-1-0.4-2.1-0.1-3.1c0.3-1.4,1.5-2.5,2.9-2.7c0.4,0,0.9,0,1.4,0.2c0.9,0.3,1.7,0.3,2.5,0
		c1.4-0.6,2.7-0.1,3.6,1c-2.1,1.3-1.7,4.2,0.4,5.2C298.8,207.1,298.2,208.2,297.2,209z M293.6,199.3c0-0.8,0.3-1.4,0.9-2
		c0.5-0.5,1-0.8,1.7-0.9c0.2,1.4-1,3-2.3,3.1C293.7,199.6,293.6,199.5,293.6,199.3z M421.1,190h-62v-3h62V190z M427.1,150.8
		c0,2.7-2.3,5.2-4.9,5.2H295.5c-2.7,0-4.4-2.5-4.4-5.2V54.2c0-2.7,1.7-5.1,4.4-5.1h126.7c2.7,0,4.9,2.4,4.9,5.1V150.8L427.1,150.8z"
		/>
	<path fill="#CFD6CF" d="M456.1,268h-11.6l-26.4,20.9v6.3c0,3.2,2.5,6,5.7,6.5l32.3,5.4V268z"/>
</g>
<rect x="288.6" y="44.5" opacity="0.87" fill="#D4D9D4" enable-background="new    " width="148.5" height="114.9"/>
</svg>
